<svg width="700" height="224" viewBox="0 0 700 224" fill="none" xmlns="http://www.w3.org/2000/svg">
<path d="M616.602 0C613.002 0 610.102 0.300002 607.702 0.900002C605.302 1.5 603.402 2.5 602.002 3.9C600.602 5.3 599.602 7.2 599.002 9.5C598.402 11.8 598.102 14.8 598.102 18.3V80.3C598.102 83.9 598.402 86.8 599.002 89.1C599.602 91.4 600.602 93.3 602.002 94.7C603.402 96.1 605.302 97.1 607.702 97.7C610.102 98.3 613.002 98.6 616.602 98.6H649.802C656.602 98.6 663.002 97.3 669.002 94.7C675.002 92.1 680.202 88.6 684.602 84.1C689.102 79.6 692.602 74.4 695.202 68.5C697.802 62.5 699.102 56.1 699.102 49.3C699.102 42.5 697.802 36.1 695.202 30.1C692.602 24.1 689.102 18.9 684.602 14.5C680.102 10 674.902 6.5 669.002 3.9C663.002 1.3 656.602 0 649.802 0H616.602V0Z" fill="white"/>
<path d="M73.8 198.801C68.1 202.301 60.9 203.101 55.4 203.101C40.3 203.101 27.1 190.901 27.1 172.301C27.1 152.901 37.3 139.301 53.4 139.301C60.9 139.301 69.3 142.201 73.8 147.001V198.801ZM73.8 123.801C67.5 119.701 59.7 117.901 52.6 117.901C21.8 117.901 0 140.301 0 172.201C0 206.101 27.1 224.001 55.3 224.001C69.6 224.001 85.3 220.501 99.4 211.801V60.3008H73.7V123.801H73.8ZM182.7 201.001C178.2 203.601 171.5 205.101 163.7 205.101C151.1 205.101 143.3 198.401 143.3 188.001C143.3 179.201 152.1 174.301 161.9 174.301C170.1 174.301 178.6 178.001 182.7 181.601V201.001ZM207.2 158.601C207.2 133.901 198.4 118.001 165 118.001C148.9 118.001 136.5 122.101 127.5 126.401L135 144.401C138.9 142.601 149.9 138.501 162.9 138.501C176.6 138.501 182.7 144.201 182.7 152.401V162.601C177 158.301 164.5 155.901 157.6 155.901C138.8 155.901 116.8 164.501 116.8 187.501C116.8 206.901 130.9 224.001 161.7 224.001C184.9 224.001 199.6 217.701 207.2 211.601V158.601ZM256.1 221.201V60.3008H230.4V221.201H256.1ZM307.3 221.201V120.901H281.6V221.201H307.3ZM294.3 104.201C303.7 104.201 310.4 97.7008 310.4 88.1008C310.4 78.7008 304.1 72.0008 294.3 72.0008C285.1 72.0008 278.2 78.5008 278.2 88.1008C278.2 97.8008 285.1 104.201 294.3 104.201ZM481.7 221.201V153.701C481.7 129.201 470.3 118.001 449.7 118.001C434.6 118.001 422 127.001 414 133.101C411.4 127.801 405.8 118.001 389.7 118.001C374.4 118.001 362.8 127.201 358.5 131.301V120.901H332.8V221.201H358.5V151.401C361.6 147.501 370.7 140.601 379.1 140.601C388.7 140.601 394.4 145.501 394.4 157.101V221.301H420.1V151.301C424.2 146.801 432.7 140.701 442.1 140.701C451.5 140.701 456 146.601 456 158.201V221.401H481.7V221.201ZM564.5 201.001C560 203.601 553.3 205.101 545.5 205.101C532.9 205.101 525.1 198.401 525.1 188.001C525.1 179.201 533.9 174.301 543.7 174.301C551.9 174.301 560.4 178.001 564.5 181.601V201.001ZM589 158.601C589 133.901 580.2 118.001 546.8 118.001C530.7 118.001 518.3 122.101 509.3 126.401L516.8 144.401C520.7 142.601 531.7 138.501 544.7 138.501C558.4 138.501 564.5 144.201 564.5 152.401V162.601C558.8 158.301 546.3 155.901 539.4 155.901C520.6 155.901 498.6 164.501 498.6 187.501C498.6 206.901 512.7 224.001 543.5 224.001C566.7 224.001 581.4 217.701 589 211.601V158.601V158.601Z" fill="white"/>
</svg>
