<svg width="252" height="138" viewBox="0 0 252 138" fill="none" xmlns="http://www.w3.org/2000/svg">
<path d="M39.1 54.1C41.1 55 42.8 56.1 44.3 57.6C45.8 59.1 47 60.8 47.9 62.7C48.8 64.7 49.3 66.7 49.3 68.8V37C49.3 39.1 48.8 41.1 47.9 43C47 44.9 45.8 46.6 44.3 48.1C42.8 49.6 41.1 50.7 39.1 51.6C37.1 52.5 35.1 52.9 33 52.9C35.1 52.8 37.2 53.2 39.1 54.1ZM3.3 0H0C1.1 0 2 0.4 2.7 1.1C3.4 1.8 3.8 2.7 3.8 3.8V8.5V10.2V12.5V25.6V39.6V97.2V101.9C3.8 103 3.4 103.9 2.7 104.6C2 105.3 1.1 105.7 0 105.7H3.3H10.4H28.1H31.4C30.3 105.7 29.4 105.3 28.7 104.6C28 103.9 27.6 103 27.6 101.9V97.2V39.5V25.5V3.8C27.6 2.7 28 1.8 28.7 1.1C29.4 0.4 30.3 0 31.4 0H28.1H3.3ZM40.6 0C43 0 45.4 0.5 47.6 1.6C49.9 2.7 51.9 4 53.6 5.7C55.4 7.4 56.7 9.4 57.7 11.7C58.7 14 59.2 16.4 59.2 18.9V0H40.6ZM59.3 105.6V86.9C59.3 89.3 58.8 91.7 57.8 93.9C56.8 96.2 55.4 98.2 53.7 99.9C51.9 101.7 49.9 103 47.7 104C45.4 105 43.1 105.5 40.7 105.5L59.3 105.6ZM96.1 104.2V53.7V44.5C96.1 39.7 95.3 36.3 93.7 34.2C92.1 32.2 89.3 31.2 85.3 31.2H68.5C69.6 31.2 70.5 31.6 71.2 32.3C71.9 33 72.3 33.9 72.3 35V54V103.5V114V133C72.3 134.1 71.9 135 71.2 135.7C70.5 136.4 69.6 136.8 68.5 136.8H85.3C89.3 136.8 92.1 135.8 93.7 133.8C95.3 131.8 96.1 128.4 96.1 123.5V114.3V104.2ZM101 35C102 34.7 103.1 34.6 104.3 34.8C106.1 34.9 107.8 35.6 109.4 36.9C111 38.2 112.4 40.2 113.6 42.9C114.8 45.6 115.8 49 116.5 53.2C117.3 57.4 117.7 62.4 117.8 68.2C117.9 80 116.8 88.6 114.5 94C112.2 99.4 109 102.1 105 102.1C103.6 102.1 102.2 101.8 100.9 101.3C99.6 100.7 98.4 99.9 97.3 98.8C99 100.5 101 102 103.2 103.2C105.4 104.4 108 105.1 111 105.3C115.4 105.5 119.6 104.8 123.4 103.2C127.3 101.6 130.6 99.2 133.3 96C136.1 92.8 138.2 88.8 139.7 84.2C141.2 79.5 141.9 74.2 141.7 68.3C141.7 62.7 141 57.6 139.6 53C138.2 48.4 136.3 44.5 133.8 41.3C131.3 38.1 128.4 35.6 125.1 33.9C121.7 32.2 118.1 31.3 114.2 31.3C110.7 31.3 107.6 31.9 104.9 33C102.2 34.1 99.9 35.2 98 36.3C99 35.7 100 35.3 101 35ZM173.6 3.5C171.3 1.1 168.4 0 165.1 0C161.9 0 159.1 1.2 156.8 3.5C154.5 5.9 153.3 8.7 153.3 11.9C153.3 15.2 154.5 18 156.8 20.3C159.1 22.6 161.9 23.8 165.1 23.8C168.4 23.8 171.2 22.6 173.6 20.3C175.9 18 177.1 15.2 177.1 11.9C177.1 8.7 175.9 5.9 173.6 3.5ZM177.1 83.7V101.8C177.1 102.9 177.5 103.8 178.2 104.5C178.9 105.2 179.8 105.6 180.9 105.6H149.5C150.6 105.6 151.5 105.2 152.2 104.5C152.9 103.8 153.3 102.9 153.3 101.8V82.8V53.8V35C153.3 33.9 152.9 33 152.2 32.3C151.5 31.6 150.6 31.2 149.5 31.2H180.9C179.8 31.2 178.9 31.6 178.2 32.3C177.5 33 177.1 33.9 177.1 35V53.1V83.7ZM232.5 33.4C233.9 34.6 234.7 35.8 235 37.1C235.3 38.5 235 39.7 234.2 40.6C233.3 41.6 232.5 42.4 231.7 43.2C229.3 45.6 228.1 48.4 228.1 51.6C228.1 54.9 229.3 57.7 231.6 60C233.9 62.3 236.8 63.5 240.1 63.5C243.3 63.5 246.1 62.3 248.4 60C250.7 57.7 251.9 54.9 251.9 51.6C251.9 49.1 251.3 46.7 250 44.4C248.7 42.1 247 40 244.8 38.2C242.6 36.4 240 34.9 237 33.7C234 32.5 230.8 31.7 227.3 31.3C229.4 31.6 231.2 32.3 232.5 33.4ZM237.1 103C240.1 101.8 242.7 100.3 244.9 98.5C247.1 96.7 248.8 94.6 250.1 92.3C251.3 90 252 87.5 252 84.9C252 81.7 250.8 78.9 248.5 76.5C246.2 74.1 243.4 73 240.2 73C236.9 73 234.1 74.2 231.7 76.5C229.4 78.9 228.2 81.7 228.2 84.9C228.2 88.2 229.4 91.1 231.8 93.5C232.6 94.3 233.4 95.2 234.3 96.1C235.2 97.1 235.4 98.2 235.1 99.6C234.8 100.9 234 102.1 232.6 103.2C231.2 104.3 229.5 105 227.4 105.3C230.8 105 234.1 104.2 237.1 103ZM190.9 82.8C192.5 87.3 194.7 91.3 197.7 94.6C200.7 98 204.3 100.6 208.5 102.6C212.8 104.6 217.6 105.5 222.9 105.5H223.7C219.7 105.2 216.8 103 215 98.9C213.3 94.8 212.4 87.8 212.4 78.1V68.3V58.6C212.4 48.8 213.3 41.9 215 37.8C216.7 33.7 219.6 31.5 223.6 31.2H222.8C217.5 31.2 212.7 32.2 208.4 34.1C204.1 36.1 200.5 38.7 197.6 42C194.6 45.3 192.4 49.2 190.8 53.8C189.2 58.3 188.5 63.2 188.5 68.3C188.6 73.5 189.3 78.3 190.9 82.8Z" fill="white"/>
<path d="M118.5 125.5C117.1 123.1 114.5 121.5 111.5 121.5C107.1 121.5 103.6 124.8 103.6 129.5C103.6 134.2 107.1 137.5 111.5 137.5C114.7 137.5 117.4 135.8 118.7 133.1L117.5 132.7C116.4 134.8 114.2 136.2 111.6 136.2C107.9 136.2 104.9 133.5 104.9 129.5C104.9 125.5 107.8 122.8 111.6 122.8C114 122.8 116.2 124 117.3 125.9L118.5 125.5ZM128.4 129.5C128.4 134.1 131.9 137.5 136.3 137.5C140.7 137.5 144.3 134.2 144.3 129.5C144.3 124.8 140.7 121.5 136.3 121.5C131.9 121.5 128.4 124.9 128.4 129.5ZM129.7 129.5C129.7 125.5 132.6 122.8 136.4 122.8C140.1 122.8 143.1 125.5 143.1 129.5C143.1 133.5 140.1 136.2 136.4 136.2C132.6 136.2 129.7 133.5 129.7 129.5ZM166.1 121.8V131.1C166.1 133.2 166.2 135 166.2 135C166.2 135 165.4 133.9 164.2 132.3L156.4 121.8H155.2V137.1H156.4V127.8C156.4 125.6 156.3 123.8 156.4 123.8C156.4 123.8 157.1 124.8 158.4 126.6L166.2 137.1H167.4V121.8H166.1V121.8ZM189.1 125.6C188.6 123.1 186.5 121.5 183.8 121.5C180.8 121.5 178.6 123.2 178.6 125.6C178.6 128.2 181.3 129 183.1 129.5C185.2 130.1 188.1 130.6 188.1 133.2C188.1 135 186.5 136.4 184 136.4C181.3 136.4 179.7 134.7 179.5 132.7L178.3 133C178.6 135.5 180.6 137.5 183.9 137.5C187.2 137.5 189.4 135.6 189.4 133.1C189.4 130 186.4 129.2 184.2 128.6C182.1 128 179.8 127.4 179.8 125.6C179.8 123.8 181.4 122.7 183.7 122.7C185.8 122.7 187.5 123.9 187.9 126L189.1 125.6ZM210.9 121.8V131C210.9 134.5 209.3 136.3 206 136.3C202.8 136.3 201.1 134.5 201.1 131V121.8H199.9V130.9C199.9 135.1 202 137.4 206.1 137.4C210.1 137.4 212.3 135.1 212.3 130.9V121.8H210.9ZM224.9 135.9V121.8H223.7V137.1H233.4V135.9H224.9V135.9ZM239.7 121.8V123H244.9V137.1H246.2V123H251.5V121.8H239.7Z" fill="white"/>
</svg>
