<?xml version="1.0" encoding="utf-8"?>
<!-- Generator: Adobe Illustrator 21.0.0, SVG Export Plug-In . SVG Version: 6.00 Build 0)  -->
<svg version="1.1" id="Layer_1" xmlns="http://www.w3.org/2000/svg" xmlns:xlink="http://www.w3.org/1999/xlink" x="0px" y="0px"
	 viewBox="0 0 372 186" style="enable-background:new 0 0 372 186;" xml:space="preserve">
<style type="text/css">
	.st0{fill:#FFFFFF;}
</style>
<g>
	<path class="st0" d="M99.1,79.1c2,0.9,3.7,2,5.2,3.5s2.7,3.2,3.6,5.1c0.9,2,1.4,4,1.4,6.1V62c0,2.1-0.5,4.1-1.4,6s-2.1,3.6-3.6,5.1
		s-3.2,2.6-5.2,3.5s-4,1.3-6.1,1.3C95.1,77.8,97.2,78.2,99.1,79.1L99.1,79.1z M63.3,25H60c1.1,0,2,0.4,2.7,1.1s1.1,1.6,1.1,2.7v4.7
		v1.7v2.3v13.1v14v57.6v4.7c0,1.1-0.4,2-1.1,2.7c-0.7,0.7-1.6,1.1-2.7,1.1h3.3h7.1h17.7h3.3c-1.1,0-2-0.4-2.7-1.1
		c-0.7-0.7-1.1-1.6-1.1-2.7v-4.7V64.5v-14V28.8c0-1.1,0.4-2,1.1-2.7s1.6-1.1,2.7-1.1h-3.3L63.3,25L63.3,25z M100.6,25
		c2.4,0,4.8,0.5,7,1.6c2.3,1.1,4.3,2.4,6,4.1c1.8,1.7,3.1,3.7,4.1,6s1.5,4.7,1.5,7.2V25H100.6L100.6,25z M119.3,130.6v-18.7
		c0,2.4-0.5,4.8-1.5,7c-1,2.3-2.4,4.3-4.1,6c-1.8,1.8-3.8,3.1-6,4.1c-2.3,1-4.6,1.5-7,1.5L119.3,130.6L119.3,130.6z M156.1,129.2
		V78.7v-9.2c0-4.8-0.8-8.2-2.4-10.3c-1.6-2-4.4-3-8.4-3h-16.8c1.1,0,2,0.4,2.7,1.1c0.7,0.7,1.1,1.6,1.1,2.7v19v49.5V139v19
		c0,1.1-0.4,2-1.1,2.7c-0.7,0.7-1.6,1.1-2.7,1.1h16.8c4,0,6.8-1,8.4-3c1.6-2,2.4-5.4,2.4-10.3v-9.2V129.2L156.1,129.2z M161,60
		c1-0.3,2.1-0.4,3.3-0.2c1.8,0.1,3.5,0.8,5.1,2.1s3,3.3,4.2,6s2.2,6.1,2.9,10.3c0.8,4.2,1.2,9.2,1.3,15c0.1,11.8-1,20.4-3.3,25.8
		s-5.5,8.1-9.5,8.1c-1.4,0-2.8-0.3-4.1-0.8c-1.3-0.6-2.5-1.4-3.6-2.5c1.7,1.7,3.7,3.2,5.9,4.4c2.2,1.2,4.8,1.9,7.8,2.1
		c4.4,0.2,8.6-0.5,12.4-2.1c3.9-1.6,7.2-4,9.9-7.2c2.8-3.2,4.9-7.2,6.4-11.8c1.5-4.7,2.2-10,2-15.9c0-5.6-0.7-10.7-2.1-15.3
		c-1.4-4.6-3.3-8.5-5.8-11.7c-2.5-3.2-5.4-5.7-8.7-7.4c-3.4-1.7-7-2.6-10.9-2.6c-3.5,0-6.6,0.6-9.3,1.7c-2.7,1.1-5,2.2-6.9,3.3
		C159,60.7,160,60.3,161,60L161,60z M233.6,28.5c-2.3-2.4-5.2-3.5-8.5-3.5c-3.2,0-6,1.2-8.3,3.5c-2.3,2.4-3.5,5.2-3.5,8.4
		c0,3.3,1.2,6.1,3.5,8.4c2.3,2.3,5.1,3.5,8.3,3.5c3.3,0,6.1-1.2,8.5-3.5c2.3-2.3,3.5-5.1,3.5-8.4C237.1,33.7,235.9,30.9,233.6,28.5
		L233.6,28.5z M237.1,108.7v18.1c0,1.1,0.4,2,1.1,2.7c0.7,0.7,1.6,1.1,2.7,1.1h-31.4c1.1,0,2-0.4,2.7-1.1c0.7-0.7,1.1-1.6,1.1-2.7
		v-19v-29V60c0-1.1-0.4-2-1.1-2.7c-0.7-0.7-1.6-1.1-2.7-1.1h31.4c-1.1,0-2,0.4-2.7,1.1c-0.7,0.7-1.1,1.6-1.1,2.7v18.1V108.7
		L237.1,108.7z M292.5,58.4c1.4,1.2,2.2,2.4,2.5,3.7c0.3,1.4,0,2.6-0.8,3.5c-0.9,1-1.7,1.8-2.5,2.6c-2.4,2.4-3.6,5.2-3.6,8.4
		c0,3.3,1.2,6.1,3.5,8.4s5.2,3.5,8.5,3.5c3.2,0,6-1.2,8.3-3.5s3.5-5.1,3.5-8.4c0-2.5-0.6-4.9-1.9-7.2c-1.3-2.3-3-4.4-5.2-6.2
		s-4.8-3.3-7.8-4.5s-6.2-2-9.7-2.4C289.4,56.6,291.2,57.3,292.5,58.4L292.5,58.4z M297.1,128c3-1.2,5.6-2.7,7.8-4.5
		c2.2-1.8,3.9-3.9,5.2-6.2c1.2-2.3,1.9-4.8,1.9-7.4c0-3.2-1.2-6-3.5-8.4s-5.1-3.5-8.3-3.5c-3.3,0-6.1,1.2-8.5,3.5
		c-2.3,2.4-3.5,5.2-3.5,8.4c0,3.3,1.2,6.2,3.6,8.6c0.8,0.8,1.6,1.7,2.5,2.6c0.9,1,1.1,2.1,0.8,3.5c-0.3,1.3-1.1,2.5-2.5,3.6
		c-1.4,1.1-3.1,1.8-5.2,2.1C290.8,130,294.1,129.2,297.1,128L297.1,128z M250.9,107.8c1.6,4.5,3.8,8.5,6.8,11.8c3,3.4,6.6,6,10.8,8
		c4.3,2,9.1,2.9,14.4,2.9h0.8c-4-0.3-6.9-2.5-8.7-6.6c-1.7-4.1-2.6-11.1-2.6-20.8v-9.8v-9.7c0-9.8,0.9-16.7,2.6-20.8
		s4.6-6.3,8.6-6.6h-0.8c-5.3,0-10.1,1-14.4,2.9c-4.3,2-7.9,4.6-10.8,7.9c-3,3.3-5.2,7.2-6.8,11.8c-1.6,4.5-2.3,9.4-2.3,14.5
		C248.6,98.5,249.3,103.3,250.9,107.8L250.9,107.8z"/>
	<path class="st0" d="M178.5,150.5c-1.4-2.4-4-4-7-4c-4.4,0-7.9,3.3-7.9,8s3.5,8,7.9,8c3.2,0,5.9-1.7,7.2-4.4l-1.2-0.4
		c-1.1,2.1-3.3,3.5-5.9,3.5c-3.7,0-6.7-2.7-6.7-6.7s2.9-6.7,6.7-6.7c2.4,0,4.6,1.2,5.7,3.1L178.5,150.5L178.5,150.5z M188.4,154.5
		c0,4.6,3.5,8,7.9,8s8-3.3,8-8s-3.6-8-8-8S188.4,149.9,188.4,154.5L188.4,154.5z M189.7,154.5c0-4,2.9-6.7,6.7-6.7
		c3.7,0,6.7,2.7,6.7,6.7s-3,6.7-6.7,6.7C192.6,161.2,189.7,158.5,189.7,154.5L189.7,154.5z M226.1,146.8v9.3c0,2.1,0.1,3.9,0.1,3.9
		l0,0c0,0-0.8-1.1-2-2.7l-7.8-10.5h-1.2v15.3h1.2v-9.3c0-2.2-0.1-4,0-4l0,0c0,0,0.7,1,2,2.8l7.8,10.5h1.2v-15.3H226.1L226.1,146.8z
		 M249.1,150.6c-0.5-2.5-2.6-4.1-5.3-4.1c-3,0-5.2,1.7-5.2,4.1c0,2.6,2.7,3.4,4.5,3.9c2.1,0.6,5,1.1,5,3.7c0,1.8-1.6,3.2-4.1,3.2
		c-2.7,0-4.3-1.7-4.5-3.7l-1.2,0.3c0.3,2.5,2.3,4.5,5.6,4.5s5.5-1.9,5.5-4.4c0-3.1-3-3.9-5.2-4.5c-2.1-0.6-4.4-1.2-4.4-3
		s1.6-2.9,3.9-2.9c2.1,0,3.8,1.2,4.2,3.3L249.1,150.6L249.1,150.6z M270.9,146.8v9.2c0,3.5-1.6,5.3-4.9,5.3c-3.2,0-4.9-1.8-4.9-5.3
		v-9.2h-1.2v9.1c0,4.2,2.1,6.5,6.2,6.5c4,0,6.2-2.3,6.2-6.5v-9.1H270.9L270.9,146.8z M284.9,160.9v-14.1h-1.2v15.3h9.7v-1.2H284.9
		L284.9,160.9z M299.7,146.8v1.2h5.2v14.1h1.3V148h5.3v-1.2H299.7L299.7,146.8z"/>
</g>
</svg>
