<?xml version="1.0" encoding="utf-8"?>
<!-- Generator: Adobe Illustrator 24.2.3, SVG Export Plug-In . SVG Version: 6.00 Build 0)  -->
<svg version="1.1" id="Layer_1" xmlns="http://www.w3.org/2000/svg" xmlns:xlink="http://www.w3.org/1999/xlink" x="0px" y="0px"
	 viewBox="0 0 270 158.5" style="enable-background:new 0 0 270 158.5;" xml:space="preserve">
<style type="text/css">
	.st0{fill:#FFFFFF;}
</style>
<g id="Layer_2_1_">
	<g id="Layer_1-2">
		<polyline class="st0" points="209.8,0 226.8,0 226.8,43.3 183.6,43.3 183.6,26.3 198.2,26.3 183.7,11.8 183.7,0 195.5,0 
			209.8,14.3 		"/>
		<polyline class="st0" points="243.8,86.5 226.8,86.5 226.8,43.3 270,43.3 270,60.2 255.4,60.2 269.9,74.7 269.9,86.5 258.1,86.5 
			243.8,72.2 		"/>
		<path class="st0" d="M1.6,151.6c0.1,1.1,0.4,2.2,0.9,3.1c0.5,0.9,1.2,1.6,2,2.1c0.8,0.6,1.7,1,2.7,1.2c1,0.3,2,0.4,3.1,0.4
			c1,0,2.1-0.1,3.1-0.4c0.9-0.2,1.9-0.6,2.7-1.1c0.8-0.5,1.4-1.1,1.9-1.9c0.5-0.8,0.7-1.7,0.7-2.7c0-1.1-0.3-2.2-1-3
			c-0.6-0.8-1.5-1.4-2.4-1.7c-1-0.4-2-0.7-3.1-0.9c-1.1-0.2-2.1-0.4-3.1-0.7c-0.8-0.2-1.6-0.5-2.4-0.9c-0.6-0.3-1-0.9-1-1.6
			c0-0.5,0.1-1,0.4-1.4c0.3-0.4,0.6-0.7,1-0.9c0.4-0.2,0.9-0.4,1.3-0.4c0.5-0.1,0.9-0.1,1.4-0.1c0.6,0,1.2,0.1,1.8,0.3
			c0.6,0.2,1.1,0.4,1.6,0.8c0.4,0.3,0.8,0.8,1.1,1.3c0.3,0.6,0.4,1.2,0.4,1.9l3.3-0.4c0-1.1-0.3-2.2-0.9-3.1
			c-0.6-0.8-1.4-1.5-2.2-1.9c-0.9-0.5-1.8-0.8-2.7-1c-0.8-0.2-1.6-0.3-2.4-0.3c-0.9,0-1.7,0.1-2.6,0.3c-0.8,0.2-1.6,0.5-2.4,1
			c-0.7,0.5-1.2,1.1-1.6,1.8c-0.4,0.8-0.7,1.7-0.6,2.5c-0.1,1.1,0.3,2.1,0.9,3c0.6,0.7,1.5,1.3,2.4,1.6c1,0.4,2,0.7,3.1,0.9
			c1.1,0.2,2.1,0.4,3.1,0.6c0.8,0.2,1.6,0.5,2.3,0.9c0.6,0.4,1,1.1,0.9,1.8c0,0.6-0.1,1.2-0.5,1.7c-0.3,0.4-0.7,0.8-1.1,1
			c-0.4,0.2-0.9,0.4-1.4,0.5c-0.4,0.1-0.9,0.1-1.3,0.1c-0.7,0-1.3-0.1-2-0.2c-0.6-0.1-1.2-0.4-1.8-0.8c-0.5-0.4-1-0.9-1.3-1.5
			c-0.3-0.7-0.5-1.5-0.5-2.3L1.6,151.6L1.6,151.6z M39,146.4c0.1-0.7,0.2-1.4,0.5-2.1c0.2-0.7,0.6-1.3,1.1-1.8c0.4-0.5,1-1,1.6-1.3
			c0.7-0.3,1.4-0.5,2.2-0.5c0.8,0,1.6,0.1,2.4,0.4c0.7,0.3,1.3,0.7,1.8,1.2c0.5,0.5,0.9,1.2,1.1,1.8c0.3,0.7,0.5,1.5,0.6,2.2H39z
			 M53.8,149v-0.8c0-1.4-0.2-2.7-0.6-4c-0.3-1.2-0.9-2.3-1.7-3.2c-0.8-0.9-1.7-1.7-2.8-2.1c-1.3-0.5-2.6-0.8-4-0.8
			c-1.4,0-2.8,0.2-4.1,0.7c-1.1,0.4-2.1,1.2-2.9,2.1c-0.8,1-1.4,2.1-1.7,3.3c-0.4,1.4-0.6,2.8-0.6,4.3c0,1.3,0.2,2.7,0.6,3.9
			c0.4,1.2,1,2.3,1.8,3.2c0.8,0.9,1.8,1.6,2.9,2.1c1.3,0.5,2.6,0.8,4,0.8c2,0.1,3.9-0.5,5.6-1.6c1.6-1.2,2.8-2.9,3.3-4.9l-3.3-0.4
			c-0.7,2.9-2.5,4.3-5.4,4.3c-0.9,0-1.7-0.2-2.5-0.5c-0.7-0.3-1.3-0.8-1.8-1.5c-0.5-0.6-0.9-1.4-1.1-2.2c-0.3-0.9-0.4-1.8-0.4-2.7
			H53.8z M71.9,158h3.3v-10.9c0-0.6,0.1-1.2,0.3-1.8c0.2-0.6,0.5-1.2,0.9-1.7c0.4-0.5,0.9-0.9,1.5-1.3c0.6-0.4,1.4-0.5,2.1-0.5H81
			c0.4,0,0.8,0,1.1,0.1v-3.7c-1.4-0.1-2.8,0.2-4.1,0.8c-1.2,0.6-2.1,1.6-2.8,2.8h-0.1v-3.3h-3.3V158z M104.7,158h3.1l6.9-19.4h-3.4
			l-5,14.5h-0.1l-5.1-14.5h-3.5L104.7,158z M131.8,132.9h3.3v-3.8h-3.3V132.9z M131.8,158h3.3v-19.4h-3.3V158z M171.6,144.6
			c-0.2-1-0.6-2-1.2-2.9c-0.5-0.8-1.2-1.5-2-2c-0.8-0.6-1.7-1-2.6-1.2c-1-0.3-2-0.4-3-0.4c-1.4,0-2.8,0.2-4.1,0.8
			c-1.1,0.5-2.2,1.2-3,2.2c-0.8,1-1.5,2.1-1.8,3.3c-0.4,1.3-0.6,2.7-0.6,4.1c0,1.4,0.2,2.8,0.6,4.1c0.4,1.2,1,2.2,1.8,3.1
			c0.8,0.9,1.9,1.6,3,2.1c1.3,0.5,2.7,0.8,4.2,0.7c2.2,0.1,4.4-0.6,6.1-2c1.7-1.4,2.7-3.4,2.9-5.6l-3.6-0.3c0,1.5-0.5,2.9-1.6,3.9
			c-1.1,1-2.5,1.5-4,1.4c-1,0-1.9-0.2-2.8-0.6c-0.7-0.4-1.4-1-1.8-1.7c-0.5-0.7-0.8-1.6-1-2.4c-0.2-0.9-0.3-1.8-0.3-2.8
			c0-0.9,0.1-1.8,0.3-2.7c0.2-0.9,0.5-1.7,1-2.5c0.5-0.7,1.1-1.3,1.9-1.8c0.9-0.5,1.9-0.7,2.9-0.7c1.2,0,2.4,0.4,3.4,1.1
			c1,0.8,1.6,1.9,1.8,3.1L171.6,144.6L171.6,144.6z M192.1,146.4c0.1-0.7,0.2-1.4,0.5-2.1c0.2-0.7,0.6-1.3,1.1-1.8
			c0.5-0.5,1-1,1.6-1.3c0.7-0.3,1.4-0.5,2.2-0.5c0.8,0,1.6,0.1,2.4,0.4c1.3,0.6,2.4,1.7,2.9,3.1c0.3,0.7,0.5,1.5,0.6,2.2H192.1z
			 M206.8,149v-0.8c0-1.4-0.2-2.7-0.6-4c-0.3-1.2-0.9-2.3-1.7-3.2c-0.8-0.9-1.7-1.7-2.8-2.1c-1.3-0.5-2.6-0.8-4-0.8
			c-1.4,0-2.8,0.2-4.1,0.7c-1.1,0.5-2.1,1.2-2.9,2.1c-0.8,1-1.4,2.1-1.7,3.3c-0.4,1.4-0.6,2.8-0.6,4.3c0,1.3,0.2,2.7,0.6,3.9
			c0.4,1.2,1,2.3,1.8,3.2c0.8,0.9,1.8,1.6,2.9,2.1c1.3,0.5,2.6,0.8,4,0.8c2,0.1,3.9-0.5,5.6-1.6c1.6-1.2,2.8-2.9,3.3-4.9l-3.3-0.4
			c-0.7,2.9-2.6,4.3-5.4,4.3c-0.9,0-1.7-0.2-2.5-0.5c-0.7-0.3-1.3-0.8-1.8-1.5c-0.5-0.6-0.9-1.4-1.1-2.2c-0.3-0.9-0.4-1.8-0.4-2.7
			L206.8,149z"/>
		<path class="st0" d="M16.2,118.4H28l9.7-28l9.8,28h11.7l16.2-49h-14l-8.4,28.2l-9.4-28.3H32.1l-9.4,28.3l-8.5-28.1H0L16.2,118.4
			L16.2,118.4z M80.8,118h39.5v-11.5H94.2v-7.7h23.3V88.2H94.2v-7.4H120V69.4H80.8V118L80.8,118z M127.2,118h37v-11.8h-23.5V69.4
			h-13.5V118L127.2,118z M170,118h37v-11.8h-23.6V69.4H170V118z"/>
	</g>
</g>
</svg>
