<svg width="309" height="140" viewBox="0 0 309 140" fill="none" xmlns="http://www.w3.org/2000/svg">
<path d="M101.399 36.9C98.6992 14.5 80.4992 0 51.4992 0H6.69922V128.1H8.19922L32.1992 104.7V84.4H51.5992C52.0992 84.4 52.4992 84.4 52.9992 84.4L101.399 36.9ZM75.4992 42.8C75.4992 52.5 68.8992 61.6 54.7992 61.6H32.0992V23.8H54.7992C68.6992 23.8 75.4992 32.8 75.4992 42.8Z" fill="white"/>
<path d="M0 139.3H23.4V116.4L0 139.3ZM44.5 95.8996L69.8 139.3H98.3L69 90.7996C84.6 84.3996 93.2 71.5996 93.2 53.9996C93.2 52.0996 93.1 50.2996 92.9 48.5996L44.5 95.8996Z" fill="white"/>
<path d="M131.3 28.2998L125.4 18.4998C128.6 17.1998 130.3 14.5998 130.3 10.9998C130.3 5.79981 126.5 2.2998 120.1 2.2998H111V28.2998H116.2V19.3998H120.1C120.2 19.3998 120.3 19.3998 120.4 19.3998L125.6 28.2998H131.3ZM116.1 7.09981H120.7C123.5 7.09981 124.9 8.89981 124.9 10.9998C124.9 12.9998 123.6 14.7998 120.7 14.7998H116.1V7.09981ZM151.7 2.2998V16.8998C151.7 21.6998 149.6 23.9998 145.7 23.9998C141.7 23.9998 139.7 21.7998 139.7 16.8998V2.2998H134.5V16.9998C134.5 24.5998 138.8 28.7998 145.7 28.7998C152.5 28.7998 156.9 24.5998 156.9 16.9998V2.2998H151.7ZM167.1 23.3998V2.2998H162V28.2998H180V23.4998L167.1 23.3998ZM188.9 23.3998V17.0998H199.3V12.5998H188.9V7.09981H202.1V2.2998H183.7V28.2998H202.3V23.4998H188.9V23.3998V23.3998Z" fill="white"/>
<path d="M119.5 60.5998V70.1998H120.8V58.2998H119.5L115.2 64.6998L110.9 58.2998H109.6V70.0998H110.9V60.5998L115.2 66.8998H115.3L119.5 60.5998ZM127.1 62.3998C128.7 62.3998 129.7 63.1998 129.7 64.7998V65.0998C128.9 64.8998 128.1 64.6998 127 64.6998C124.8 64.6998 123.3 65.6998 123.3 67.4998C123.3 69.2998 124.9 70.1998 126.6 70.1998C128.1 70.1998 129.1 69.4998 129.8 68.6998V69.9998H131V64.6998C131 62.3998 129.7 61.1998 127.3 61.1998C126 61.1998 125.1 61.4998 124.1 61.8998L124.5 62.9998C125.3 62.6998 126.1 62.3998 127.1 62.3998ZM127.2 65.6998C128.3 65.6998 129.1 65.8998 129.8 66.0998V66.8998C129.8 68.2998 128.5 69.2998 126.9 69.2998C125.7 69.2998 124.7 68.6998 124.7 67.4998C124.6 66.3998 125.5 65.6998 127.2 65.6998ZM135 66.6998C135 64.0998 136.6 62.6998 138.5 62.6998H138.6V61.2998C136.9 61.1998 135.7 62.2998 135 63.6998V61.3998H133.7V70.0998H135V66.6998ZM144.5 65.1998L148.2 61.4998H146.6L141.9 66.3998V57.8998H140.6V70.1998H141.9V67.8998L143.7 66.0998L146.8 70.1998H148.4L144.5 65.1998ZM150.9 66.2998H157.8C157.8 66.0998 157.8 65.9998 157.8 65.8998C157.8 63.2998 156.3 61.2998 153.7 61.2998C151.3 61.2998 149.5 63.2998 149.5 65.8998C149.5 68.5998 151.5 70.4998 153.9 70.4998C155.6 70.4998 156.6 69.7998 157.5 68.8998L156.7 68.1998C156 68.8998 155.1 69.3998 154 69.3998C152.5 69.1998 151.1 68.0998 150.9 66.2998ZM150.9 65.2998C151.1 63.5998 152.2 62.2998 153.7 62.2998C155.4 62.2998 156.3 63.6998 156.5 65.2998H150.9ZM161.9 62.5998H164.7V61.4998H161.9V58.8998H160.6V61.4998H159.4V62.5998H160.6V67.8998C160.6 69.6998 161.7 70.3998 163.1 70.3998C163.7 70.3998 164.2 70.2998 164.7 69.9998V68.8998C164.2 69.0998 163.9 69.1998 163.4 69.1998C162.5 69.1998 161.9 68.7998 161.9 67.6998V62.5998V62.5998ZM168.5 59.4998V58.0998H167V59.4998H168.5ZM168.4 70.0998V61.3998H167.1V70.0998H168.4ZM172.7 65.0998C172.7 63.4998 173.8 62.3998 175.3 62.3998C176.8 62.3998 177.7 63.3998 177.7 64.9998V70.0998H179V64.6998C179 62.5998 177.8 61.1998 175.7 61.1998C174.2 61.1998 173.3 61.9998 172.7 62.8998V61.3998H171.4V70.0998H172.7V65.0998ZM190.1 68.5998V61.3998H188.8V62.9998C188.1 62.0998 187 61.1998 185.4 61.1998C183.3 61.1998 181.3 62.7998 181.3 65.2998C181.3 67.7998 183.3 69.3998 185.4 69.3998C187 69.3998 188.1 68.5998 188.8 67.5998V68.5998C188.8 70.5998 187.6 71.6998 185.6 71.6998C184.4 71.6998 183.2 71.2998 182.2 70.5998L181.6 71.5998C182.8 72.3998 184.1 72.7998 185.6 72.7998C188.3 72.8998 190.1 71.3998 190.1 68.5998ZM188.8 65.2998C188.8 67.0998 187.2 68.2998 185.6 68.2998C184 68.2998 182.6 67.0998 182.6 65.2998C182.6 63.4998 184 62.2998 185.6 62.2998C187.3 62.3998 188.8 63.4998 188.8 65.2998ZM198.8 66.2998H205.7C205.7 66.0998 205.7 65.9998 205.7 65.8998C205.7 63.2998 204.2 61.2998 201.6 61.2998C199.2 61.2998 197.4 63.2998 197.4 65.8998C197.4 68.5998 199.4 70.4998 201.8 70.4998C203.5 70.4998 204.5 69.7998 205.4 68.8998L204.6 68.1998C203.9 68.8998 203 69.3998 201.9 69.3998C200.3 69.1998 199 68.0998 198.8 66.2998ZM198.8 65.2998C199 63.5998 200.1 62.2998 201.6 62.2998C203.3 62.2998 204.2 63.6998 204.4 65.2998H198.8ZM222.1 62.0998C222.1 59.7998 220.3 58.2998 217.7 58.2998H213.3V70.0998H214.6V65.9998H217.5C220 65.9998 222.1 64.5998 222.1 62.0998ZM220.8 62.0998C220.8 63.6998 219.5 64.6998 217.6 64.6998H214.7V59.4998H217.7C219.5 59.5998 220.8 60.3998 220.8 62.0998ZM230.5 66.3998C230.5 67.9998 229.4 69.0998 227.9 69.0998C226.4 69.0998 225.5 68.0998 225.5 66.4998V61.3998H224.2V66.7998C224.2 68.8998 225.4 70.2998 227.5 70.2998C229 70.2998 229.9 69.4998 230.5 68.5998V70.0998H231.8V61.3998H230.5V66.3998ZM243.5 65.7998C243.5 62.8998 241.4 61.2998 239.3 61.2998C237.7 61.2998 236.7 62.1998 236 63.1998V57.8998H234.7V70.1998H236V68.4998C236.7 69.4998 237.7 70.3998 239.3 70.3998C241.5 70.2998 243.5 68.5998 243.5 65.7998ZM242.2 65.7998C242.2 67.8998 240.8 69.1998 239.1 69.1998C237.5 69.1998 235.9 67.8998 235.9 65.7998C235.9 63.7998 237.4 62.3998 239.1 62.3998C240.8 62.3998 242.2 63.6998 242.2 65.7998ZM247.3 70.0998V57.7998H246V70.0998H247.3ZM251.9 59.4998V58.0998H250.4V59.4998H251.9ZM251.8 70.0998V61.3998H250.5V70.0998H251.8ZM262.3 68.5998L261.5 67.7998C260.8 68.4998 259.9 69.0998 258.8 69.0998C257 69.0998 255.6 67.5998 255.6 65.6998C255.6 63.7998 256.9 62.2998 258.7 62.2998C259.9 62.2998 260.7 62.8998 261.3 63.5998L262.2 62.6998C261.4 61.7998 260.4 61.0998 258.7 61.0998C256.2 61.0998 254.2 63.1998 254.2 65.6998C254.2 68.1998 256.1 70.1998 258.7 70.1998C260.3 70.2998 261.4 69.5998 262.3 68.5998ZM265.9 59.4998V58.0998H264.4V59.4998H265.9ZM265.8 70.0998V61.3998H264.5V70.0998H265.8ZM277.1 70.0998V57.7998H275.8V63.0998C275.1 62.0998 274.1 61.1998 272.5 61.1998C270.4 61.1998 268.3 62.8998 268.3 65.7998C268.3 68.6998 270.4 70.2998 272.5 70.2998C274.1 70.2998 275.1 69.3998 275.8 68.3998V70.1998H277.1V70.0998ZM275.9 65.7998C275.9 67.7998 274.4 69.1998 272.7 69.1998C271 69.1998 269.6 67.8998 269.6 65.7998C269.6 63.6998 271 62.3998 272.7 62.3998C274.4 62.3998 275.9 63.6998 275.9 65.7998ZM283.2 62.3998C284.8 62.3998 285.8 63.1998 285.8 64.7998V65.0998C285 64.8998 284.2 64.6998 283.1 64.6998C280.9 64.6998 279.4 65.6998 279.4 67.4998C279.4 69.2998 281 70.1998 282.7 70.1998C284.2 70.1998 285.2 69.4998 285.9 68.6998V69.9998H287.1V64.6998C287.1 62.3998 285.8 61.1998 283.4 61.1998C282.1 61.1998 281.2 61.4998 280.2 61.8998L280.6 62.9998C281.4 62.6998 282.2 62.3998 283.2 62.3998ZM283.2 65.6998C284.3 65.6998 285.1 65.8998 285.8 66.0998V66.8998C285.8 68.2998 284.5 69.2998 282.9 69.2998C281.7 69.2998 280.7 68.6998 280.7 67.4998C280.7 66.3998 281.6 65.6998 283.2 65.6998ZM298.1 70.0998V57.7998H296.8V63.0998C296.1 62.0998 295.1 61.1998 293.5 61.1998C291.4 61.1998 289.3 62.8998 289.3 65.7998C289.3 68.6998 291.4 70.2998 293.5 70.2998C295.1 70.2998 296.1 69.3998 296.8 68.3998V70.1998H298.1V70.0998ZM296.9 65.7998C296.9 67.7998 295.4 69.1998 293.7 69.1998C292 69.1998 290.6 67.8998 290.6 65.7998C290.6 63.6998 292 62.3998 293.7 62.3998C295.3 62.3998 296.9 63.6998 296.9 65.7998ZM301.8 66.2998H308.7C308.7 66.0998 308.7 65.9998 308.7 65.8998C308.7 63.2998 307.2 61.2998 304.6 61.2998C302.2 61.2998 300.4 63.2998 300.4 65.8998C300.4 68.5998 302.4 70.4998 304.8 70.4998C306.5 70.4998 307.5 69.7998 308.4 68.8998L307.6 68.1998C306.9 68.8998 306 69.3998 304.9 69.3998C303.3 69.1998 302 68.0998 301.8 66.2998ZM301.8 65.2998C302 63.5998 303.1 62.2998 304.6 62.2998C306.3 62.2998 307.2 63.6998 307.4 65.2998H301.8Z" fill="white"/>
<path d="M119.7 47.9996L118.8 47.0996C117.7 48.1996 116.6 48.7996 115 48.7996C112.4 48.7996 110.4 46.6996 110.4 43.8996C110.4 41.1996 112.4 38.9996 115 38.9996C116.6 38.9996 117.7 39.6996 118.7 40.5996L119.6 39.5996C118.4 38.4996 117.1 37.6996 115 37.6996C111.5 37.6996 109 40.3996 109 43.7996C109 47.1996 111.5 49.8996 114.9 49.8996C117.1 50.0996 118.4 49.2996 119.7 47.9996ZM130.3 45.4996C130.3 42.9996 128.4 40.9996 125.8 40.9996C123.2 40.9996 121.2 43.0996 121.2 45.5996C121.2 48.0996 123.1 50.0996 125.7 50.0996C128.4 50.0996 130.3 47.9996 130.3 45.4996ZM129 45.5996C129 47.4996 127.7 48.9996 125.8 48.9996C124 48.9996 122.6 47.4996 122.6 45.5996C122.6 43.6996 123.9 42.1996 125.8 42.1996C127.6 42.0996 129 43.6996 129 45.5996ZM134 44.8996C134 43.2996 135.1 42.1996 136.6 42.1996C138.1 42.1996 139 43.1996 139 44.7996V49.8996H140.3V44.4996C140.3 42.3996 139.1 40.9996 137 40.9996C135.5 40.9996 134.6 41.7996 134 42.6996V41.1996H132.7V49.8996H134V44.8996ZM149 47.4996C149 45.8996 147.5 45.3996 146.2 44.9996C145 44.5996 144 44.2996 144 43.4996C144 42.7996 144.7 42.1996 145.7 42.1996C146.5 42.1996 147.5 42.4996 148.3 42.9996L148.9 41.9996C148 41.3996 146.8 40.9996 145.8 40.9996C144.1 40.9996 142.8 41.9996 142.8 43.4996C142.8 45.0996 144.3 45.5996 145.7 45.9996C146.8 46.2996 147.9 46.6996 147.9 47.4996C147.9 48.2996 147.1 48.8996 146.1 48.8996C145.1 48.8996 144 48.4996 143.1 47.7996L142.4 48.6996C143.4 49.4996 144.8 49.9996 146 49.9996C147.7 50.0996 149 49.0996 149 47.4996ZM157.6 46.1996C157.6 47.7996 156.5 48.8996 155 48.8996C153.5 48.8996 152.6 47.8996 152.6 46.2996V41.1996H151.3V46.5996C151.3 48.6996 152.5 50.0996 154.6 50.0996C156.1 50.0996 157 49.2996 157.6 48.3996V49.8996H158.9V41.1996H157.6V46.1996ZM163.3 49.8996V37.5996H162V49.8996H163.3ZM168 42.2996H170.8V41.1996H168V38.5996H166.7V41.1996H165.5V42.2996H166.7V47.5996C166.7 49.3996 167.8 50.0996 169.2 50.0996C169.8 50.0996 170.3 49.9996 170.8 49.6996V48.5996C170.3 48.7996 170 48.8996 169.5 48.8996C168.6 48.8996 168 48.4996 168 47.3996V42.2996V42.2996ZM181.6 45.4996C181.6 42.9996 179.7 40.9996 177.1 40.9996C174.5 40.9996 172.5 43.0996 172.5 45.5996C172.5 48.0996 174.4 50.0996 177 50.0996C179.7 50.0996 181.6 47.9996 181.6 45.4996ZM180.3 45.5996C180.3 47.4996 179 48.9996 177.1 48.9996C175.3 48.9996 173.9 47.4996 173.9 45.5996C173.9 43.6996 175.2 42.1996 177.1 42.1996C178.9 42.0996 180.3 43.6996 180.3 45.5996ZM185.3 46.3996C185.3 43.7996 186.9 42.3996 188.8 42.3996H188.9V40.9996C187.2 40.8996 186 41.9996 185.3 43.3996V41.0996H184V49.7996H185.3V46.3996ZM192.3 39.2996V37.8996H190.8V39.2996H192.3ZM192.2 49.8996V41.1996H190.9V49.8996H192.2ZM198.4 42.1996C200 42.1996 201 42.9996 201 44.5996V44.8996C200.2 44.6996 199.4 44.4996 198.3 44.4996C196.1 44.4996 194.6 45.4996 194.6 47.2996C194.6 49.0996 196.2 49.9996 197.9 49.9996C199.4 49.9996 200.4 49.2996 201.1 48.4996V49.7996H202.3V44.4996C202.3 42.1996 201 40.9996 198.6 40.9996C197.3 40.9996 196.4 41.2996 195.4 41.6996L195.8 42.7996C196.6 42.4996 197.4 42.1996 198.4 42.1996ZM198.4 45.4996C199.5 45.4996 200.3 45.6996 201 45.8996V46.6996C201 48.0996 199.7 49.0996 198.1 49.0996C196.9 49.0996 195.9 48.4996 195.9 47.2996C195.9 46.1996 196.8 45.4996 198.4 45.4996ZM218.4 49.8996V37.5996H217.1V42.8996C216.4 41.8996 215.4 40.9996 213.8 40.9996C211.7 40.9996 209.6 42.6996 209.6 45.5996C209.6 48.4996 211.7 50.0996 213.8 50.0996C215.4 50.0996 216.4 49.1996 217.1 48.1996V49.9996L218.4 49.8996ZM217.1 45.4996C217.1 47.4996 215.6 48.8996 213.9 48.8996C212.2 48.8996 210.8 47.5996 210.8 45.4996C210.8 43.3996 212.2 42.0996 213.9 42.0996C215.6 42.1996 217.1 43.4996 217.1 45.4996ZM222 45.9996H228.9C228.9 45.7996 228.9 45.6996 228.9 45.5996C228.9 42.9996 227.4 40.9996 224.8 40.9996C222.4 40.9996 220.6 42.9996 220.6 45.5996C220.6 48.2996 222.6 50.1996 224.9 50.1996C226.6 50.1996 227.6 49.4996 228.5 48.5996L227.7 47.8996C227 48.5996 226.1 49.0996 225 49.0996C223.6 48.9996 222.2 47.8996 222 45.9996ZM222 45.0996C222.2 43.3996 223.3 42.0996 224.8 42.0996C226.5 42.0996 227.4 43.4996 227.6 45.0996H222Z" fill="white"/>
</svg>
