<?xml version="1.0" encoding="utf-8"?>
<!-- Generator: Adobe Illustrator 21.0.0, SVG Export Plug-In . SVG Version: 6.00 Build 0)  -->
<svg version="1.1" id="Layer_1" xmlns="http://www.w3.org/2000/svg" xmlns:xlink="http://www.w3.org/1999/xlink" x="0px" y="0px"
	 viewBox="0 0 340 170" style="enable-background:new 0 0 340 170;" xml:space="preserve">
<style type="text/css">
	.st0{fill:#FFFFFF;}
</style>
<g>
	<path class="st0" d="M116.4,51.9C113.7,29.5,95.5,15,66.5,15H21.7v128.1h1.5l24-23.4V99.4h19.4c0.5,0,0.9,0,1.4,0L116.4,51.9
		L116.4,51.9z M90.5,57.8c0,9.7-6.6,18.8-20.7,18.8H47.1V38.8h22.7C83.7,38.8,90.5,47.8,90.5,57.8L90.5,57.8z"/>
	<path class="st0" d="M15,154.3h23.4v-22.9L15,154.3L15,154.3z M59.5,110.9l25.3,43.4h28.5L84,105.8c15.6-6.4,24.2-19.2,24.2-36.8
		c0-1.9-0.1-3.7-0.3-5.4L59.5,110.9L59.5,110.9z"/>
	<path class="st0" d="M146.3,43.3l-5.9-9.8c3.2-1.3,4.9-3.9,4.9-7.5c0-5.2-3.8-8.7-10.2-8.7H126v26h5.2v-8.9h3.9c0.1,0,0.2,0,0.3,0
		l5.2,8.9L146.3,43.3L146.3,43.3z M131.1,22.1h4.6c2.8,0,4.2,1.8,4.2,3.9c0,2-1.3,3.8-4.2,3.8h-4.6V22.1L131.1,22.1z M166.7,17.3
		v14.6c0,4.8-2.1,7.1-6,7.1c-4,0-6-2.2-6-7.1V17.3h-5.2V32c0,7.6,4.3,11.8,11.2,11.8c6.8,0,11.2-4.2,11.2-11.8V17.3H166.7
		L166.7,17.3z M182.1,38.4V17.3H177v26h18v-4.8L182.1,38.4L182.1,38.4z M203.9,38.4v-6.3h10.4v-4.5h-10.4v-5.5h13.2v-4.8h-18.4v26
		h18.6v-4.8h-13.4V38.4z"/>
	<path class="st0" d="M134.5,75.6v9.6h1.3V73.3h-1.3l-4.3,6.4l-4.3-6.4h-1.3v11.8h1.3v-9.5l4.3,6.3h0.1L134.5,75.6L134.5,75.6z
		 M142.1,77.4c1.6,0,2.6,0.8,2.6,2.4v0.3c-0.8-0.2-1.6-0.4-2.7-0.4c-2.2,0-3.7,1-3.7,2.8s1.6,2.7,3.3,2.7c1.5,0,2.5-0.7,3.2-1.5V85
		h1.2v-5.3c0-2.3-1.3-3.5-3.7-3.5c-1.3,0-2.2,0.3-3.2,0.7l0.4,1.1C140.3,77.7,141.1,77.4,142.1,77.4L142.1,77.4z M142.2,80.7
		c1.1,0,1.9,0.2,2.6,0.4v0.8c0,1.4-1.3,2.4-2.9,2.4c-1.2,0-2.2-0.6-2.2-1.8C139.6,81.4,140.5,80.7,142.2,80.7L142.2,80.7z M150,81.7
		c0-2.6,1.6-4,3.5-4h0.1v-1.4c-1.7-0.1-2.9,1-3.6,2.4v-2.3h-1.3v8.7h1.3V81.7L150,81.7z M159.5,80.2l3.7-3.7h-1.6l-4.7,4.9v-8.5
		h-1.3v12.3h1.3v-2.3l1.8-1.8l3.1,4.1h1.6L159.5,80.2L159.5,80.2z M165.9,81.3h6.9c0-0.2,0-0.3,0-0.4c0-2.6-1.5-4.6-4.1-4.6
		c-2.4,0-4.2,2-4.2,4.6c0,2.7,2,4.6,4.4,4.6c1.7,0,2.7-0.7,3.6-1.6l-0.8-0.7c-0.7,0.7-1.6,1.2-2.7,1.2
		C167.5,84.2,166.1,83.1,165.9,81.3L165.9,81.3z M165.9,80.3c0.2-1.7,1.3-3,2.8-3c1.7,0,2.6,1.4,2.8,3H165.9L165.9,80.3z
		 M176.9,77.6h2.8v-1.1h-2.8v-2.6h-1.3v2.6h-1.2v1.1h1.2v5.3c0,1.8,1.1,2.5,2.5,2.5c0.6,0,1.1-0.1,1.6-0.4v-1.1
		c-0.5,0.2-0.8,0.3-1.3,0.3c-0.9,0-1.5-0.4-1.5-1.5V77.6L176.9,77.6z M183.5,74.5v-1.4H182v1.4H183.5L183.5,74.5z M183.4,85.1v-8.7
		h-1.3v8.7H183.4L183.4,85.1z M187.7,80.1c0-1.6,1.1-2.7,2.6-2.7s2.4,1,2.4,2.6v5.1h1.3v-5.4c0-2.1-1.2-3.5-3.3-3.5
		c-1.5,0-2.4,0.8-3,1.7v-1.5h-1.3v8.7h1.3V80.1L187.7,80.1z M205.1,83.6v-7.2h-1.3V78c-0.7-0.9-1.8-1.8-3.4-1.8
		c-2.1,0-4.1,1.6-4.1,4.1s2,4.1,4.1,4.1c1.6,0,2.7-0.8,3.4-1.8v1c0,2-1.2,3.1-3.2,3.1c-1.2,0-2.4-0.4-3.4-1.1l-0.6,1
		c1.2,0.8,2.5,1.2,4,1.2C203.3,87.9,205.1,86.4,205.1,83.6L205.1,83.6z M203.8,80.3c0,1.8-1.6,3-3.2,3c-1.6,0-3-1.2-3-3s1.4-3,3-3
		C202.3,77.4,203.8,78.5,203.8,80.3L203.8,80.3z M213.8,81.3h6.9c0-0.2,0-0.3,0-0.4c0-2.6-1.5-4.6-4.1-4.6c-2.4,0-4.2,2-4.2,4.6
		c0,2.7,2,4.6,4.4,4.6c1.7,0,2.7-0.7,3.6-1.6l-0.8-0.7c-0.7,0.7-1.6,1.2-2.7,1.2C215.3,84.2,214,83.1,213.8,81.3L213.8,81.3z
		 M213.8,80.3c0.2-1.7,1.3-3,2.8-3c1.7,0,2.6,1.4,2.8,3H213.8L213.8,80.3z M237.1,77.1c0-2.3-1.8-3.8-4.4-3.8h-4.4v11.8h1.3V81h2.9
		C235,81,237.1,79.6,237.1,77.1L237.1,77.1z M235.8,77.1c0,1.6-1.3,2.6-3.2,2.6h-2.9v-5.2h3C234.5,74.6,235.8,75.4,235.8,77.1
		L235.8,77.1z M245.5,81.4c0,1.6-1.1,2.7-2.6,2.7s-2.4-1-2.4-2.6v-5.1h-1.3v5.4c0,2.1,1.2,3.5,3.3,3.5c1.5,0,2.4-0.8,3-1.7v1.5h1.3
		v-8.7h-1.3V81.4L245.5,81.4z M258.5,80.8c0-2.9-2.1-4.5-4.2-4.5c-1.6,0-2.6,0.9-3.3,1.9v-5.3h-1.3v12.3h1.3v-1.7
		c0.7,1,1.7,1.9,3.3,1.9C256.5,85.3,258.5,83.6,258.5,80.8L258.5,80.8z M257.2,80.8c0,2.1-1.4,3.4-3.1,3.4c-1.6,0-3.2-1.3-3.2-3.4
		c0-2,1.5-3.4,3.2-3.4S257.2,78.7,257.2,80.8L257.2,80.8z M262.3,85.1V72.8H261v12.3L262.3,85.1L262.3,85.1z M266.9,74.5v-1.4h-1.5
		v1.4H266.9L266.9,74.5z M266.8,85.1v-8.7h-1.3v8.7H266.8L266.8,85.1z M277.3,83.6l-0.8-0.8c-0.7,0.7-1.6,1.3-2.7,1.3
		c-1.8,0-3.2-1.5-3.2-3.4s1.3-3.4,3.1-3.4c1.2,0,2,0.6,2.6,1.3l0.9-0.9c-0.8-0.9-1.8-1.6-3.5-1.6c-2.5,0-4.5,2.1-4.5,4.6
		s1.9,4.5,4.5,4.5C275.3,85.3,276.4,84.6,277.3,83.6L277.3,83.6z M280.9,74.5v-1.4h-1.5v1.4H280.9L280.9,74.5z M280.8,85.1v-8.7
		h-1.3v8.7H280.8L280.8,85.1z M292.1,85.1V72.8h-1.3v5.3c-0.7-1-1.7-1.9-3.3-1.9c-2.1,0-4.2,1.7-4.2,4.6s2.1,4.5,4.2,4.5
		c1.6,0,2.6-0.9,3.3-1.9v1.8h1.3V85.1z M290.9,80.8c0,2-1.5,3.4-3.2,3.4s-3.1-1.3-3.1-3.4s1.4-3.4,3.1-3.4S290.9,78.7,290.9,80.8
		L290.9,80.8z M298.2,77.4c1.6,0,2.6,0.8,2.6,2.4v0.3c-0.8-0.2-1.6-0.4-2.7-0.4c-2.2,0-3.7,1-3.7,2.8s1.6,2.7,3.3,2.7
		c1.5,0,2.5-0.7,3.2-1.5V85h1.2v-5.3c0-2.3-1.3-3.5-3.7-3.5c-1.3,0-2.2,0.3-3.2,0.7l0.4,1.1C296.4,77.7,297.2,77.4,298.2,77.4
		L298.2,77.4z M298.2,80.7c1.1,0,1.9,0.2,2.6,0.4v0.8c0,1.4-1.3,2.4-2.9,2.4c-1.2,0-2.2-0.6-2.2-1.8
		C295.7,81.4,296.6,80.7,298.2,80.7L298.2,80.7z M313.1,85.1V72.8h-1.3v5.3c-0.7-1-1.7-1.9-3.3-1.9c-2.1,0-4.2,1.7-4.2,4.6
		s2.1,4.5,4.2,4.5c1.6,0,2.6-0.9,3.3-1.9v1.8h1.3V85.1z M311.9,80.8c0,2-1.5,3.4-3.2,3.4s-3.1-1.3-3.1-3.4s1.4-3.4,3.1-3.4
		C310.3,77.4,311.9,78.7,311.9,80.8L311.9,80.8z M316.8,81.3h6.9c0-0.2,0-0.3,0-0.4c0-2.6-1.5-4.6-4.1-4.6c-2.4,0-4.2,2-4.2,4.6
		c0,2.7,2,4.6,4.4,4.6c1.7,0,2.7-0.7,3.6-1.6l-0.8-0.7c-0.7,0.7-1.6,1.2-2.7,1.2C318.3,84.2,317,83.1,316.8,81.3L316.8,81.3z
		 M316.8,80.3c0.2-1.7,1.3-3,2.8-3c1.7,0,2.6,1.4,2.8,3H316.8L316.8,80.3z"/>
	<path class="st0" d="M134.7,63l-0.9-0.9c-1.1,1.1-2.2,1.7-3.8,1.7c-2.6,0-4.6-2.1-4.6-4.9c0-2.7,2-4.9,4.6-4.9
		c1.6,0,2.7,0.7,3.7,1.6l0.9-1c-1.2-1.1-2.5-1.9-4.6-1.9c-3.5,0-6,2.7-6,6.1c0,3.4,2.5,6.1,5.9,6.1C132.1,65.1,133.4,64.3,134.7,63
		L134.7,63z M145.3,60.5c0-2.5-1.9-4.5-4.5-4.5s-4.6,2.1-4.6,4.6s1.9,4.5,4.5,4.5C143.4,65.1,145.3,63,145.3,60.5L145.3,60.5z
		 M144,60.6c0,1.9-1.3,3.4-3.2,3.4c-1.8,0-3.2-1.5-3.2-3.4s1.3-3.4,3.2-3.4C142.6,57.1,144,58.7,144,60.6L144,60.6z M149,59.9
		c0-1.6,1.1-2.7,2.6-2.7s2.4,1,2.4,2.6v5.1h1.3v-5.4c0-2.1-1.2-3.5-3.3-3.5c-1.5,0-2.4,0.8-3,1.7v-1.5h-1.3v8.7h1.3V59.9L149,59.9z
		 M164,62.5L164,62.5c0-1.6-1.5-2.1-2.8-2.5c-1.2-0.4-2.2-0.7-2.2-1.5l0,0c0-0.7,0.7-1.3,1.7-1.3c0.8,0,1.8,0.3,2.6,0.8l0.6-1
		c-0.9-0.6-2.1-1-3.1-1c-1.7,0-3,1-3,2.5l0,0c0,1.6,1.5,2.1,2.9,2.5c1.1,0.3,2.2,0.7,2.2,1.5l0,0c0,0.8-0.8,1.4-1.8,1.4
		s-2.1-0.4-3-1.1l-0.7,0.9c1,0.8,2.4,1.3,3.6,1.3C162.7,65.1,164,64.1,164,62.5L164,62.5z M172.6,61.2c0,1.6-1.1,2.7-2.6,2.7
		s-2.4-1-2.4-2.6v-5.1h-1.3v5.4c0,2.1,1.2,3.5,3.3,3.5c1.5,0,2.4-0.8,3-1.7v1.5h1.3v-8.7h-1.3V61.2L172.6,61.2z M178.3,64.9V52.6
		H177v12.3H178.3L178.3,64.9z M183,57.3h2.8v-1.1H183v-2.6h-1.3v2.6h-1.2v1.1h1.2v5.3c0,1.8,1.1,2.5,2.5,2.5c0.6,0,1.1-0.1,1.6-0.4
		v-1.1c-0.5,0.2-0.8,0.3-1.3,0.3c-0.9,0-1.5-0.4-1.5-1.5V57.3L183,57.3z M196.6,60.5c0-2.5-1.9-4.5-4.5-4.5s-4.6,2.1-4.6,4.6
		s1.9,4.5,4.5,4.5C194.7,65.1,196.6,63,196.6,60.5L196.6,60.5z M195.3,60.6c0,1.9-1.3,3.4-3.2,3.4c-1.8,0-3.2-1.5-3.2-3.4
		s1.3-3.4,3.2-3.4C193.9,57.1,195.3,58.7,195.3,60.6L195.3,60.6z M200.3,61.4c0-2.6,1.6-4,3.5-4h0.1V56c-1.7-0.1-2.9,1-3.6,2.4v-2.3
		H199v8.7h1.3V61.4L200.3,61.4z M207.3,54.3v-1.4h-1.5v1.4H207.3L207.3,54.3z M207.2,64.9v-8.7h-1.3v8.7H207.2L207.2,64.9z
		 M213.4,57.2c1.6,0,2.6,0.8,2.6,2.4v0.3c-0.8-0.2-1.6-0.4-2.7-0.4c-2.2,0-3.7,1-3.7,2.8s1.6,2.7,3.3,2.7c1.5,0,2.5-0.7,3.2-1.5v1.3
		h1.2v-5.3c0-2.3-1.3-3.5-3.7-3.5c-1.3,0-2.2,0.3-3.2,0.7l0.4,1.1C211.6,57.5,212.4,57.2,213.4,57.2L213.4,57.2z M213.4,60.5
		c1.1,0,1.9,0.2,2.6,0.4v0.8c0,1.4-1.3,2.4-2.9,2.4c-1.2,0-2.2-0.6-2.2-1.8C210.9,61.2,211.8,60.5,213.4,60.5L213.4,60.5z
		 M233.4,64.9V52.6h-1.3v5.3c-0.7-1-1.7-1.9-3.3-1.9c-2.1,0-4.2,1.7-4.2,4.6c0,2.9,2.1,4.5,4.2,4.5c1.6,0,2.6-0.9,3.3-1.9V65
		L233.4,64.9L233.4,64.9z M232.1,60.5c0,2-1.5,3.4-3.2,3.4s-3.1-1.3-3.1-3.4c0-2.1,1.4-3.4,3.1-3.4
		C230.6,57.2,232.1,58.5,232.1,60.5L232.1,60.5z M237,61h6.9c0-0.2,0-0.3,0-0.4c0-2.6-1.5-4.6-4.1-4.6c-2.4,0-4.2,2-4.2,4.6
		c0,2.7,2,4.6,4.3,4.6c1.7,0,2.7-0.7,3.6-1.6l-0.8-0.7c-0.7,0.7-1.6,1.2-2.7,1.2C238.6,64,237.2,62.9,237,61L237,61z M237,60.1
		c0.2-1.7,1.3-3,2.8-3c1.7,0,2.6,1.4,2.8,3H237L237,60.1z"/>
</g>
</svg>
