<?xml version="1.0" encoding="utf-8"?>
<!-- Generator: Adobe Illustrator 21.0.0, SVG Export Plug-In . SVG Version: 6.00 Build 0)  -->
<svg version="1.1" id="ULTRA_Logo" xmlns="http://www.w3.org/2000/svg" xmlns:xlink="http://www.w3.org/1999/xlink" x="0px" y="0px"
	 viewBox="0 0 1200 494.8" style="enable-background:new 0 0 1200 494.8;" xml:space="preserve">
<style type="text/css">
	.st0{fill:#FFFFFF;}
</style>
<g id="XMLID_53_">
	<g>
		<path id="XMLID_220_" class="st0" d="M208.3,194.1V77.7h-41.5v119c0,35.5-20.8,50.4-43.2,50.4c-22.5,0-43.2-15-43.2-50.4V95H38.8
			v99.1c0,61.1,38.6,88.8,84.7,88.8C169.7,282.9,208.3,255.2,208.3,194.1 M314.9,279.5h122.5v-35.2h-81V77.7h-41.5V279.5z
			 M596.2,112.9h53.9V77.7H500.8v35.2h53.9v166.6h41.5V112.9z M805.2,186.1h-21.3v-73.8H811c22.8,0,38.3,12.7,38.3,36.9
			C849.3,173.7,833.7,186.1,805.2,186.1 M895.7,279.5l-64-62.8c36.3-8.1,59.7-33.1,59.7-68.3c0-39.5-30-70.6-79.6-70.6h-69.5v201.8
			h41.5v-61.1l59.1,61.1h52.8V279.5z M1093.4,214.9h-60.5l30.3-78.4L1093.4,214.9z M1161.4,279.5l-81.6-201.8h-33.4l-81.6,201.8
			h43.2l11.5-30h87l11.5,30H1161.4z"/>
		<rect id="XMLID_219_" x="38.6" y="60.4" class="st0" width="41.5" height="17.3"/>
		<rect id="XMLID_218_" x="38.6" y="25.8" class="st0" width="41.5" height="17.3"/>
		<path id="XMLID_203_" class="st0" d="M859.5,434.3v0.1V434.3L859.5,434.3z M843.6,461.9c-1.2,0.8-2.2,1.4-3.1,1.7
			c-1,0.2-2,0.3-3,0.3c0.1-0.2,0.2-0.3,0.3-0.5s0.2-0.3,0.3-0.5l0.1-0.1c1-1.2,2-2.3,3-3.2c1-1,2.1-2,3.2-3c0.1,0,0.2-0.1,0.2-0.2
			c0.1-0.1,0.2-0.2,0.2-0.2c0.8-0.7,1.6-1.4,2.5-2.1s1.9-1.5,2.9-2.4c-0.5,1.4-1.1,2.8-1.7,4.1c-0.6,1.3-1.3,2.4-2,3.4
			C845.7,460.1,844.7,461.1,843.6,461.9 M926.3,390.5c-1.1,0-2.2,0.3-3.4,1c-0.6,0.4-1.2,0.8-1.8,1.2c-0.6,0.4-1.2,0.8-1.9,1.4
			l-0.1,0.1c-0.5,0.3-1,0.7-1.6,1.2c-0.6,0.4-1.3,0.9-2.1,1.5c-1,0.8-2.3,1.7-4,2.9c-1.6,1.2-3.6,2.5-5.8,4c-2.1,1.5-4.5,3.2-7.2,5
			c-2.7,1.9-5.9,4.1-9.5,6.6v-0.1c-0.5,0.3-1,0.7-1.5,1s-1,0.7-1.4,1l0,0c-0.7,0.5-1.4,0.9-2,1.4c-0.7,0.4-1.3,0.9-1.9,1.4
			c-0.4,0.3-0.8,0.6-1.3,0.9s-0.9,0.7-1.3,0.9c-1,0.7-2.1,1.5-3.1,2.2c-0.3,0.3-0.7,0.5-1.1,0.8c-0.4,0.3-0.8,0.5-1.2,0.8
			c-0.5,0.3-0.9,0.7-1.5,1.1c-0.5,0.3-1,0.7-1.6,1.1c-1.5,1.1-3.2,2.3-5,3.6c-1.8,1.3-3.9,2.8-6.2,4.5v-0.1
			c-0.2,0.1-0.4,0.3-0.7,0.5c0-0.4,0-0.8,0-1.2c0-0.4,0.1-0.7,0.3-0.9c0-0.1,0.1-0.2,0.1-0.3s0-0.2,0-0.3c0-0.1,0.1-0.2,0.1-0.3
			c0-0.1,0.1-0.3,0.1-0.4c0.2-1,0.3-1.9,0.4-2.9c0.1-1,0.3-1.9,0.4-2.8c0.1-0.7,0.2-1.3,0.3-1.9s0.2-1.2,0.2-1.8
			c0.1-1.2,0.3-2.3,0.5-3.5c0.5-3.8,1-7,1.4-9.5s0.8-4.5,1.2-6.1s0.8-2.8,1.2-3.8c0.4-0.9,0.7-1.7,1-2.2c0.2-0.4,0.3-0.7,0.5-0.9
			c0.2-0.2,0.3-0.4,0.4-0.6l0.1-0.1c0.1-0.2,0.3-0.4,0.4-0.7c0.1-0.3,0.3-0.5,0.4-0.6l0.2-0.3c0.2-0.5,0.3-1.1,0.4-1.6
			c0.1-0.5,0-1-0.3-1.5c-0.3-0.6-0.7-1-1.4-1.3c-0.6-0.3-1.4-0.4-2.3-0.2c-0.6,0.2-1.2,0.4-1.7,0.8s-1,0.8-1.4,1.4
			c-0.2,0.3-0.5,0.8-0.9,1.5s-0.8,1.6-1.2,2.6c-0.4,1.1-0.8,2.4-1.2,4.1s-0.8,3.5-1.1,5.5c-0.2,1.5-0.5,3.1-0.7,4.8
			c-0.2,1.7-0.4,3.6-0.6,5.7c-0.1,0.5-0.1,1-0.2,1.5c0,0.5-0.1,1-0.2,1.5c0,0.2-0.1,0.4-0.1,0.7c0,0.2,0,0.5-0.1,0.7
			c0,0.2-0.1,0.5-0.1,0.8s-0.1,0.6-0.1,0.8c-0.2,1.6-0.4,3.5-0.6,5.4c-0.2,2-0.5,4-0.8,5.9c-0.2,1.1-0.4,2.2-0.5,3.3
			c-0.2,1.1-0.4,2.2-0.7,3.4c-1.5,1.1-2.8,2.1-3.9,3.1c-1.1,0.9-2.1,1.8-3.1,2.7c-1.6,1.4-3.2,2.8-4.6,4.1c-1.4,1.4-2.7,2.7-3.9,4
			c-0.1,0.1-0.2,0.2-0.2,0.3c-0.1,0.1-0.2,0.2-0.2,0.3l0.1-0.1c-0.6,0.7-1.2,1.5-1.9,2.3s-1.3,1.7-1.9,2.6c-0.2,0.3-0.3,0.6-0.5,0.9
			s-0.4,0.7-0.5,1.2c-0.2,0.5-0.3,1-0.4,1.6c-0.1,0.6,0.1,1.2,0.4,2h-0.1c0.3,0.8,0.7,1.4,1.3,1.8s1.3,0.6,2,0.8
			c0.4,0.1,0.8,0.1,1.3,0.2c0.5,0,0.9,0.1,1.4,0.1c0.9,0,1.8-0.2,2.8-0.4c1-0.2,2-0.6,3-0.9c1-0.4,2-1,2.9-1.7s1.8-1.5,2.6-2.4
			c1.5-1.7,2.9-3.8,4-6.3c1.1-2.4,2.1-5.1,3-7.9c0.2-0.6,0.3-1.2,0.5-1.8c0.1-0.6,0.3-1.2,0.4-1.7c3.2-2.5,6.4-5,9.6-7.5
			c3.2-2.5,6.1-4.7,8.7-6.8c3-2.3,5.8-4.4,8.4-6.3c2.6-1.9,5.1-3.7,7.5-5.3c4.4-3,8.3-5.6,11.6-7.8c3.3-2.2,6.2-4.1,8.6-5.6
			c2.4-1.5,4.4-2.8,6.1-3.8c1.6-1,3-1.8,4-2.5c0.9-0.6,1.7-1,2.3-1.3s1.1-0.6,1.4-0.7l0.1-0.1c0,0,0.1,0,0.2-0.1l0.2-0.1
			c0.2-0.1,0.4-0.3,0.5-0.3c0.1-0.1,0.2-0.2,0.4-0.2c0.5-0.3,1-0.7,1.4-1.2c0.4-0.4,0.7-0.9,0.9-1.4s0.4-1,0.4-1.4
			c0-0.5,0-0.9-0.2-1.3C928.5,391.1,927.5,390.5,926.3,390.5 M799.8,434.3v0.1V434.3L799.8,434.3z M783.8,461.9
			c-1.2,0.8-2.2,1.4-3.1,1.7c-1,0.2-2,0.3-3,0.3c0.1-0.2,0.2-0.3,0.3-0.5s0.2-0.3,0.3-0.5l0.1-0.1c1-1.2,2-2.3,3-3.2
			c1-1,2.1-2,3.2-3c0.1,0,0.1-0.1,0.2-0.2l0.2-0.2c0.8-0.7,1.6-1.4,2.5-2.1s1.9-1.5,2.9-2.4c-0.5,1.4-1,2.8-1.7,4.1
			c-0.6,1.3-1.3,2.4-2,3.4C786,460.1,785,461.1,783.8,461.9 M866.6,390.5c-1.1,0-2.2,0.3-3.4,1c-0.6,0.4-1.2,0.8-1.8,1.2
			c-0.6,0.4-1.2,0.8-1.9,1.4l-0.1,0.1c-0.4,0.3-1,0.7-1.6,1.2c-0.6,0.4-1.3,0.9-2.1,1.5c-1,0.8-2.3,1.7-4,2.9
			c-1.6,1.2-3.6,2.5-5.8,4c-2.1,1.5-4.5,3.2-7.2,5c-2.7,1.9-5.9,4.1-9.5,6.6v-0.1c-0.5,0.3-1,0.7-1.5,1s-1,0.7-1.4,1l0,0
			c-0.7,0.5-1.4,0.9-2,1.4c-0.7,0.4-1.3,0.9-1.9,1.4c-0.4,0.3-0.8,0.6-1.3,0.9s-0.9,0.7-1.3,0.9c-1,0.7-2.1,1.5-3.1,2.2
			c-0.3,0.3-0.7,0.5-1.1,0.8c-0.4,0.3-0.8,0.5-1.2,0.8c-0.5,0.3-0.9,0.7-1.5,1.1c-0.5,0.3-1,0.7-1.6,1.1c-1.5,1.1-3.2,2.3-5,3.6
			c-1.8,1.3-3.9,2.8-6.2,4.5v-0.1c-0.2,0.1-0.4,0.3-0.7,0.5c0-0.4,0-0.8,0-1.2c0-0.4,0.1-0.7,0.3-0.9c0-0.1,0.1-0.2,0.1-0.3
			s0-0.2,0.1-0.3c0-0.1,0.1-0.2,0.1-0.3c0-0.1,0.1-0.3,0.1-0.4c0.2-1,0.3-1.9,0.4-2.9c0.1-1,0.3-1.9,0.4-2.8
			c0.1-0.7,0.2-1.3,0.3-1.9s0.2-1.2,0.2-1.8c0.1-1.2,0.3-2.3,0.5-3.5c0.5-3.8,1-7,1.4-9.5s0.8-4.5,1.2-6.1s0.8-2.8,1.2-3.8
			c0.4-0.9,0.7-1.7,1-2.2c0.2-0.4,0.3-0.7,0.5-0.9c0.2-0.2,0.3-0.4,0.4-0.6l0.1-0.1c0.1-0.2,0.3-0.4,0.4-0.7
			c0.1-0.3,0.3-0.5,0.4-0.6l0.2-0.3c0.2-0.5,0.3-1.1,0.4-1.6c0.1-0.5,0-1-0.3-1.5c-0.3-0.6-0.7-1-1.4-1.3c-0.6-0.3-1.4-0.4-2.3-0.2
			c-0.6,0.2-1.2,0.4-1.7,0.8s-1,0.8-1.4,1.4c-0.2,0.3-0.5,0.8-0.9,1.5s-0.8,1.6-1.2,2.6c-0.4,1.1-0.8,2.4-1.2,4.1s-0.8,3.5-1.1,5.5
			c-0.2,1.5-0.5,3.1-0.6,4.8c-0.2,1.7-0.4,3.6-0.7,5.7c-0.1,0.5-0.1,1-0.2,1.5c-0.1,0.5-0.1,1-0.2,1.5c0,0.2-0.1,0.4-0.1,0.7
			c0,0.2,0,0.5-0.1,0.7c0,0.2-0.1,0.5-0.1,0.8s-0.1,0.6-0.1,0.8c-0.2,1.6-0.4,3.5-0.6,5.4c-0.2,2-0.5,4-0.8,5.9
			c-0.2,1.1-0.4,2.2-0.5,3.3c-0.2,1.1-0.4,2.2-0.7,3.4c-1.5,1.1-2.8,2.1-3.9,3.1c-1.1,0.9-2.1,1.8-3.1,2.7c-1.6,1.4-3.2,2.8-4.6,4.1
			c-1.4,1.4-2.7,2.7-3.9,4c-0.1,0.1-0.2,0.2-0.2,0.3c-0.1,0.1-0.2,0.2-0.2,0.3l0.1-0.1c-0.6,0.7-1.2,1.5-1.9,2.3s-1.3,1.7-1.9,2.6
			c-0.2,0.3-0.4,0.6-0.5,0.9c-0.2,0.3-0.3,0.7-0.5,1.2s-0.3,1-0.4,1.6c-0.1,0.6,0.1,1.2,0.4,2h-0.1c0.3,0.8,0.7,1.4,1.3,1.8
			s1.3,0.6,2,0.8c0.4,0.1,0.8,0.1,1.3,0.2c0.5,0,0.9,0.1,1.4,0.1c0.9,0,1.8-0.2,2.8-0.4c1-0.2,2-0.6,3-0.9c1-0.4,2-1,2.9-1.7
			s1.8-1.5,2.6-2.4c1.5-1.7,2.9-3.8,4-6.3c1.1-2.4,2.1-5.1,3-7.9c0.2-0.6,0.3-1.2,0.5-1.8c0.1-0.6,0.3-1.2,0.4-1.7
			c3.2-2.5,6.4-5,9.6-7.5c3.2-2.5,6.1-4.7,8.7-6.8c3-2.3,5.8-4.4,8.4-6.3c2.6-1.9,5.1-3.7,7.5-5.3c4.4-3,8.2-5.6,11.6-7.8
			c3.3-2.2,6.2-4.1,8.6-5.6c2.4-1.5,4.4-2.8,6.1-3.8c1.6-1,3-1.8,4-2.5c0.9-0.6,1.7-1,2.3-1.3s1.1-0.6,1.4-0.7l0.1-0.1
			c0,0,0.1,0,0.2-0.1l0.2-0.1c0.2-0.1,0.4-0.3,0.5-0.3c0.1-0.1,0.2-0.2,0.4-0.2c0.5-0.3,1-0.7,1.4-1.2c0.4-0.4,0.7-0.9,0.9-1.4
			s0.4-1,0.4-1.4c0-0.5,0-0.9-0.2-1.3C868.8,391.1,867.8,390.5,866.6,390.5 M727,392.3L727,392.3c-0.7,0.3-1.6,0.8-2.7,1.5
			c-1.1,0.6-2.3,1.5-3.5,2.6c-0.7,0.7-1.4,1.5-2,2.5c-0.7,1-1.1,2.1-1.4,3.5c-0.1,0.5-0.2,1.2-0.2,2c0,1.1,0.2,2.2,0.4,3.3
			c0.3,1.1,0.7,2.2,1.3,3.4V411c0.5,1,1,1.8,1.6,2.5s1.2,1.3,1.9,1.9c0.6,0.5,1.2,1,2,1.5s1.5,0.9,2.1,1.3c1.4,0.7,3.3,1.5,5.4,2.3
			c2.2,0.8,4.7,1.4,7.4,1.8c1.3,0.2,2.5,0.4,3.7,0.4c1.2,0.1,2.3,0.1,3.3,0.1c0.6,0,1.2,0,1.8,0s1.2-0.1,1.7-0.1
			c1.3-0.1,2.5-0.3,3.7-0.4c1.1-0.2,2.2-0.3,3.2-0.5c1.1-0.3,2.4-0.6,3.8-0.9c1.4-0.3,3-0.8,4.8-1.3c1.8-0.6,3.8-1.2,6.2-2
			s5.2-1.9,8.5-3.4c3.5-1.5,6.4-3,8.9-4.4s4.7-2.6,6.6-3.8c1.2-0.8,2.3-1.5,3.4-2.1c1-0.6,1.9-1.2,2.7-1.7h-0.1
			c0.1-0.1,0.3-0.2,0.4-0.3c0.1-0.1,0.3-0.2,0.4-0.3c0.2-0.2,0.5-0.3,0.7-0.4s0.4-0.2,0.6-0.4c0.3-0.2,0.6-0.4,0.9-0.6
			c0.3-0.2,0.5-0.3,0.8-0.5c0.2-0.1,0.3-0.3,0.5-0.4c0.1-0.1,0.3-0.2,0.4-0.3c0.6-0.4,1-0.7,1.4-0.9c0.3-0.2,0.6-0.4,0.8-0.5l0,0
			c0,0,0.1,0,0.1-0.1c0.5-0.4,0.9-0.8,1.1-1.4c0.3-0.5,0.4-1.1,0.4-1.7c0-0.7-0.2-1.4-0.7-2.1c-0.3-0.4-0.7-0.7-1.2-0.9
			c-0.5-0.2-1-0.3-1.5-0.3c-0.9,0-1.7,0.3-2.5,0.8c-0.1,0.1-0.2,0.1-0.3,0.2c-0.4,0.3-1,0.9-1.9,1.6s-2.1,1.7-3.7,2.9
			c-0.9,0.7-1.9,1.5-3.2,2.4s-2.8,1.9-4.6,3.1c-1.7,1.1-3.6,2.3-5.7,3.5c-2.1,1.2-4.5,2.5-7.1,3.7h0.1c-2.6,1.2-4.9,2.2-6.9,2.9
			c-2,0.7-3.8,1.3-5.3,1.8h0.1c-1.3,0.4-2.6,0.7-3.7,0.9c-1.1,0.2-2.2,0.4-3.3,0.6c-1,0.2-1.9,0.3-2.8,0.4c-0.8,0.1-1.8,0.2-2.8,0.2
			h-0.6c-1,0.1-2.1,0.2-3.2,0.2c-1.2,0.1-2.5,0.1-4.1,0.1c-5.3-0.1-9.9-0.8-13.8-2c-0.9-0.3-1.8-0.6-2.6-1s-1.6-0.8-2.4-1.3
			c-1.4-0.9-2.3-1.8-2.8-2.9c-0.4-0.8-0.7-1.6-0.9-2.3c-0.2-0.7-0.3-1.4-0.3-2.1c0-0.3,0-0.5,0.1-0.8c0.1-0.2,0.1-0.5,0.2-0.8
			c0.3-0.7,0.7-1.4,1.2-1.9s1-1,1.5-1.3l0,0c1-0.7,1.9-1.2,2.8-1.5c0.8-0.3,1.6-0.6,2.1-0.7c0.1,0,0.3,0,0.6-0.1
			c0.7-0.2,1.3-0.3,1.6-0.3s0.6-0.1,0.8-0.1s0.3,0,0.5,0c0.1,0,0.3-0.1,0.6-0.1h-0.1c0.9-0.3,1.6-0.8,2.1-1.5
			c0.6-0.7,0.8-1.6,0.7-2.5c-0.2-1-0.7-1.7-1.6-2.3c-0.9-0.6-1.9-0.7-2.9-0.5h-0.1c-0.4,0.1-0.8,0.2-1.2,0.3
			c-0.3,0.1-0.7,0.2-1.1,0.4c-0.4,0.1-0.9,0.3-1.4,0.5C728.5,391.7,727.8,392,727,392.3 M730,392.8c-0.3,0.2-0.6,0.5-0.9,0.7
			c-0.1,0.1-0.1,0.1-0.2,0.2c0,0-0.1,0.1-0.2,0.2c-0.5,0.4-1,0.8-1.7,1.4c-0.7,0.5-1.5,1.2-2.4,1.9c-0.9,0.7-2.1,1.5-3.4,2.5
			c-1.3,0.9-3,2.1-5,3.4h0.1c-1.9,1.1-4.2,2.4-7,4c-2.8,1.5-6.1,3-10,4.5c-2.2,0.7-4.4,1.4-6.6,1.9c-2.2,0.6-4.4,1-6.4,1.3
			c-0.6,0.1-1.2,0.1-1.9,0.2c-0.7,0-1.3,0.1-1.8,0.1c-1.2,0-2.6-0.1-4.2-0.3c-1.5-0.2-3-0.5-4.7-0.9s-3.5-1.2-5.3-2.2
			c-1.4-0.7-2.7-1.5-3.7-2.3c-1.1-0.8-2-1.6-2.9-2.4h0.1c-0.9-0.9-1.7-1.7-2.4-2.4c-0.7-0.7-1.3-1.4-1.9-2.1l0,0
			c-1.3-1.6-2.3-3-3.2-4.3s-1.7-2.7-2.5-4.1c0-0.1-0.1-0.1-0.1-0.2s-0.1-0.2-0.2-0.4l0,0c0-0.1-0.1-0.2-0.2-0.4
			c-0.1-0.2-0.2-0.3-0.2-0.4l-3.4-1.8c-0.2,0.2-0.4,0.4-0.6,0.5c-0.1,0.1-0.2,0.1-0.3,0.2l-0.3,0.2l0.5-0.1h0.1l-1.5,0.6l-1.5,0.7
			c-0.9,0.5-2,1.1-3.2,1.8c-1.2,0.7-2.3,1.4-3.5,2.1c-1.3,0.7-2.6,1.5-4.1,2.4s-3.1,1.9-4.7,2.9h0.1c-0.3,0.2-0.6,0.3-0.9,0.5
			c-0.3,0.2-0.6,0.3-0.9,0.5c-0.1,0.1-0.3,0.2-0.5,0.3c-0.2,0.1-0.3,0.2-0.5,0.3c-0.4,0.2-0.7,0.5-1.1,0.7c-0.4,0.2-0.8,0.5-1.2,0.7
			c-1,0.6-2.1,1.3-3.3,2.1c-1.2,0.7-2.3,1.5-3.5,2.2c-1,0.6-2.2,1.3-3.4,1.9s-2.4,1.3-3.5,1.8c-1.2,0.6-2.3,1.1-3.4,1.6
			c-1.1,0.5-2.1,0.9-3,1.2c-0.8,0.2-1.7,0.4-2.6,0.6c-1,0.1-1.8,0.2-2.5,0.2c0,0-0.1,0-0.2,0c-0.1,0-0.1,0-0.1,0
			c0.2-0.6,0.4-1.3,0.7-1.9s0.6-1.2,0.9-1.8c0.6-1.2,1.2-2.3,1.8-3.4c0.4-0.7,0.8-1.3,1.2-1.9s0.7-1.1,1.1-1.7l-0.1,0.1
			c0.1-0.2,0.2-0.3,0.3-0.4s0.1-0.2,0.2-0.3c0-0.1,0.1-0.1,0.1-0.1l0.1-0.1c0.1-0.1,0.1-0.2,0.2-0.3c0.1-0.1,0.1-0.2,0.2-0.3
			c1.1-1.7,2-3.1,2.6-4s1.1-1.6,1.5-2c0.2-0.2,0.4-0.4,0.5-0.7c0.2-0.3,0.3-0.5,0.4-0.7l-0.1,0.1c0.4-0.5,0.7-1.1,0.8-1.6
			c0.2-0.5,0.2-1,0.2-1.5c0-0.6-0.1-1.1-0.3-1.6s-0.5-0.9-1-1.2v0.1c-0.4-0.2-0.8-0.4-1.3-0.4s-1,0-1.5,0.2s-1,0.5-1.5,0.9
			s-0.9,0.8-1.3,1.4c-0.2,0.4-0.9,1.4-1.9,3s-2.4,4.1-4.3,7.3c-0.5,0.8-1,1.8-1.6,2.8s-1.1,2.1-1.7,3.3c-0.6,1.2-1.2,2.6-1.7,4.1
			h0.1c-0.2,0.4-0.3,0.8-0.5,1.3c-0.1,0.4-0.2,1-0.3,1.6v0.7c0,0.3,0,0.6,0,0.8c0,0.3,0.1,0.7,0.3,1.2l0,0l0.1,0.1l0.2,0.3v-0.1
			c0.2,0.4,0.6,0.8,1.2,1.3l0.9,0.5h0.1c0.1,0,0.1,0,0.1,0s0.1,0,0.1,0.1c0.1,0,0.1,0.1,0.2,0.1c0.1,0,0.2,0.1,0.2,0.1
			c0.6,0.2,1.1,0.3,1.7,0.4c0.6,0.1,1.2,0.1,1.9,0.1c1.1,0,2-0.1,2.8-0.3c0.9-0.2,1.9-0.4,2.9-0.8s2-0.8,3.1-1.2
			c1.8-0.8,3.7-1.8,5.7-2.9s3.9-2.3,6-3.5c0.7-0.5,1.5-0.9,2.2-1.4c0.7-0.4,1.5-0.9,2.1-1.3c0.2-0.1,0.4-0.3,0.6-0.4
			c0.2-0.1,0.5-0.3,0.7-0.4c2.3-1.5,4.6-2.9,6.7-4.3c2.1-1.3,4-2.5,5.6-3.4c1.9-1.2,3.7-2.1,5.3-2.9s3.1-1.5,4.3-2.1
			c0.3,0.6,0.6,1.1,0.8,1.7c0.3,0.6,0.6,1.1,1,1.7c0.9,1.5,2,3.2,3.4,5.1c1.3,1.9,3.1,3.8,5.2,5.8c1.8,1.6,3.7,2.9,5.8,4.1
			s4.2,2.1,6.2,2.8c2,0.7,4,1.1,6.1,1.4s4,0.4,5.8,0.4s3.6-0.2,5.3-0.4c1.7-0.2,3.4-0.5,4.9-0.9c1.6-0.4,3.1-0.8,4.6-1.2
			c1.4-0.4,2.8-0.9,4.1-1.3c2.4-0.8,4.6-1.7,6.7-2.6c2.1-0.9,3.9-1.8,5.5-2.6c1.7-0.8,3.2-1.7,4.6-2.5c1.4-0.8,2.7-1.6,3.8-2.3
			c1.8-1.1,3.4-2.1,4.8-3c1.4-0.9,2.6-1.6,3.5-2.2c0.3-0.2,0.5-0.4,0.8-0.5c0.2-0.2,0.3-0.2,0.1-0.2c0.8-0.6,1.5-1,2.1-1.4
			c0.6-0.3,1.1-0.7,1.6-0.9h0.3l0.3-0.2l0.3-0.2c0.2-0.1,0.3-0.2,0.4-0.3c0.1-0.1,0.2-0.2,0.3-0.2c0.4-0.4,0.8-0.8,1.2-1.3
			c0.3-0.5,0.5-1,0.7-1.5s0.2-1,0.2-1.5s-0.2-0.9-0.4-1.3c-0.6-0.8-1.5-1.2-2.5-1.2c-0.5,0-1.1,0.1-1.7,0.3
			c-0.6,0.2-1.2,0.5-1.7,0.9C730.7,392.3,730.3,392.6,730,392.8 M539.8,375.5c0.5-1.4,1.1-2.9,1.7-4.3h-0.1c0.2-0.4,0.4-0.9,0.6-1.4
			c0.2-0.5,0.4-0.9,0.5-1.4c0.1-0.1,0.1-0.3,0.2-0.4c0-0.1,0.1-0.3,0.2-0.5c0.1-0.2,0.2-0.4,0.3-0.6s0.2-0.5,0.3-0.6
			c0.8-2.1,1.8-4.4,2.8-7.1c1.1-2.7,2.3-5.7,3.7-8.9c1.3-2.9,2.6-5.8,3.9-8.5c1.3-2.7,2.6-5.4,3.9-7.9c0.6-1.2,1.2-2.4,1.9-3.6
			s1.4-2.3,2-3.4c0.2-0.3,0.4-0.6,0.5-0.9c0.2-0.3,0.4-0.6,0.5-0.9c0,0.6,0,1.3-0.2,1.9c-0.1,1.3-0.3,2.4-0.5,3.5s-0.4,2.1-0.6,3
			v-0.1c-0.5,1.9-1,3.8-1.7,5.9c-0.6,2-1.3,4-2,5.9c-1.2,3-2.4,5.9-3.7,8.7c-1.3,2.8-2.5,5.4-3.8,7.9s-2.5,4.7-3.7,6.8
			c-1.2,2-2.3,3.8-3.3,5.3c-1.2,1.8-2.3,3.4-3.3,4.7c-1,1.4-2,2.5-2.8,3.6c0.2-0.6,0.3-1,0.4-1.1c0-0.1,0.1-0.2,0.1-0.2
			s0.1,0,0.1-0.1c0,0,0.1-0.3,0.3-0.9C538.8,378.4,539.3,376.9,539.8,375.5 M606.1,390.9c-0.8,0.2-1.6,0.6-2.5,1.1
			c0.1-0.1,0.1-0.1,0.1-0.1c-0.1,0.1-0.1,0.1-0.2,0.2c-0.1,0-0.1,0.1-0.2,0.1h-0.1c-0.9,0.5-2.5,1.4-4.7,2.6
			c-2.3,1.2-5.5,2.7-9.7,4.6c-2.5,1.1-5.4,2.3-8.8,3.7c-3.4,1.3-7.3,2.8-11.8,4.3c-2.2,0.8-4.5,1.6-7,2.4c-2.4,0.8-5,1.6-7.7,2.4
			c-2.4,0.7-5.2,1.5-8.4,2.3c-3.1,0.8-6.4,1.5-9.7,2.1h0.1c-0.7,0.1-1.4,0.3-2,0.3c-0.7,0.1-1.3,0.1-1.9,0.1
			c-0.2-0.3-0.4-0.6-0.4-0.7c-0.2-0.7-0.3-1.5-0.4-2.2c-0.1-0.7-0.1-1.5-0.1-2.2c0-0.5,0-1,0-1.7c0-0.6,0.1-1.2,0.1-1.7
			c0.3-2.4,0.6-4.7,1-6.9c0.4-2.2,0.8-4.1,1.2-5.6l0,0c0-0.1,0.1-0.1,0.1-0.2c0,0,0-0.1,0.1-0.2c0-0.1,0.1-0.3,0.2-0.5
			c0.4-0.4,0.9-0.8,1.3-1.2c0.4-0.4,0.9-0.9,1.4-1.4c0.8-0.8,1.6-1.7,2.5-2.6c0.8-0.9,1.7-1.9,2.6-3.1c1-1.2,2.3-2.9,3.7-5
			c1.5-2.1,3.1-4.8,5-8c1.8-3.1,3.8-6.9,6-11.2c2.2-4.4,4.3-9.4,6.4-15c0.7-1.8,1.3-3.5,1.8-5.3c0.5-1.7,1-3.4,1.5-4.9
			c0.5-1.7,0.9-3.4,1.3-5.1c0.4-1.8,0.7-3.5,0.9-5c0.1-0.4,0.1-0.9,0.2-1.3s0.1-1,0.1-1.6s0-1.2,0-1.8c-0.1-0.6-0.2-1.3-0.4-2
			c-0.1-0.4-0.3-0.9-0.6-1.4s-0.8-0.9-1.5-1.3c-0.3-0.2-0.7-0.3-1.1-0.4c-0.4-0.1-0.8-0.1-1.2,0c-0.3,0-0.6,0.1-0.8,0.2
			c-0.3,0.1-0.6,0.3-0.8,0.4v0.1l-0.1,0.1c-0.5,0.3-0.9,0.8-1.4,1.2c-0.5,0.5-0.9,0.9-1.2,1.3l0.1-0.1l-0.4,0.4
			c-1.6,2-3.1,4.3-4.5,6.7c-1.4,2.5-2.9,5.2-4.5,8.2c-2.3,4.5-4.1,8.5-5.6,11.9s-2.7,6.4-3.8,9c-1,2.7-2,5.1-2.8,7.5
			c-0.8,2.3-1.6,4.7-2.4,7.2c-0.8,2.4-1.6,5-2.5,7.9s-1.8,6.2-2.9,10l-0.1,0.1c-0.2,0.2-0.4,0.3-0.5,0.3c-0.1,0.1-0.2,0.1-0.3,0.2
			l0,0l-0.1,0.1c-0.2,0.1-0.4,0.3-0.5,0.4l0.1-0.1c-1.1,0.9-2,1.9-2.6,3s-0.7,2.1-0.3,3c0.2,0.4,0.5,0.7,0.9,1
			c0.4,0.2,0.9,0.4,1.6,0.4c-0.2,0.8-0.3,1.5-0.4,2c-0.1,0.5-0.2,1-0.3,1.5s-0.2,1-0.3,1.6s-0.2,1.4-0.4,2.4c-0.1,1-0.3,2-0.4,3.1
			c-0.1,1.1-0.2,2.2-0.2,3.5c0,0.7,0,1.3,0,1.8c0,0.6,0.1,1.1,0.2,1.7c0.1,0.4,0.2,0.9,0.3,1.4s0.3,1,0.5,1.6c0.2,0.5,0.6,1,1,1.6
			c0.4,0.5,1.1,1.1,2,1.8c0.4,0.1,0.7,0.2,0.9,0.2s0.5,0,0.8,0h0.2c0.1,0,0.2,0,0.2,0h1.1h0.2h0.2c0.2,0,0.4,0,0.5,0s0.2,0,0.3-0.1
			c0.4-0.1,0.7-0.1,1.1-0.1c0.4,0,0.7-0.1,1.1-0.1c1.9-0.3,3.9-0.7,5.9-1.2c2.1-0.5,4.1-0.9,5.9-1.4c1.8-0.4,3.6-0.9,5.2-1.4
			c1.7-0.4,3.3-0.9,4.9-1.4c3.1-0.9,6.1-1.8,8.9-2.7c2.8-0.9,5.4-1.7,7.7-2.5c4.7-1.6,8.8-3.1,12.1-4.4s6.1-2.5,8.4-3.5
			c2.3-1,4.1-1.8,5.5-2.4s2.5-1.1,3.4-1.5c0.2-0.1,0.5-0.3,0.6-0.4c0.2-0.1,0.4-0.2,0.6-0.3c0.4-0.2,0.8-0.4,1.1-0.5
			c0.3-0.2,0.6-0.3,0.8-0.4c0.7-0.4,1.4-0.9,1.9-1.4s1-1.1,1.3-1.6s0.5-1.1,0.5-1.6s-0.1-1-0.3-1.4l-0.1,0.1
			c-0.5-0.8-1.3-1.2-2.6-1.2C607.7,390.6,607,390.7,606.1,390.9 M461.9,375.5c0.5-1.4,1.1-2.9,1.7-4.3h-0.1c0.2-0.4,0.4-0.9,0.5-1.4
			c0.2-0.5,0.4-0.9,0.6-1.4c0.1-0.1,0.1-0.3,0.2-0.4c0-0.1,0.1-0.3,0.2-0.5s0.2-0.4,0.3-0.6c0.1-0.2,0.2-0.5,0.3-0.6
			c0.8-2.1,1.8-4.4,2.8-7.1c1.1-2.7,2.3-5.7,3.7-8.9c1.3-2.9,2.6-5.8,3.9-8.5s2.6-5.4,3.9-7.9c0.6-1.2,1.2-2.4,1.9-3.6
			c0.7-1.2,1.4-2.3,2-3.4c0.2-0.3,0.4-0.6,0.5-0.9c0.2-0.3,0.4-0.6,0.5-0.9c0,0.6-0.1,1.3-0.2,1.9c-0.1,1.3-0.3,2.4-0.5,3.5
			s-0.4,2.1-0.6,3v-0.1c-0.5,1.9-1,3.8-1.7,5.9c-0.6,2-1.3,4-2,5.9c-1.2,3-2.4,5.9-3.7,8.7c-1.3,2.8-2.5,5.4-3.8,7.9
			s-2.5,4.7-3.7,6.8c-1.2,2-2.3,3.8-3.2,5.3c-1.2,1.8-2.3,3.4-3.3,4.7c-1,1.4-2,2.5-2.8,3.6c0.2-0.6,0.3-1,0.4-1.1
			c0-0.1,0.1-0.2,0.1-0.2s0.1,0,0.1-0.1c0,0,0.1-0.3,0.3-0.9C460.8,378.4,461.4,376.9,461.9,375.5 M528.2,390.9
			c-0.8,0.2-1.6,0.6-2.5,1.1c0.1-0.1,0.1-0.1,0.1-0.1c-0.1,0.1-0.1,0.1-0.2,0.2c-0.1,0-0.1,0.1-0.2,0.1h-0.1
			c-0.9,0.5-2.5,1.4-4.7,2.6c-2.3,1.2-5.5,2.7-9.7,4.6c-2.5,1.1-5.4,2.3-8.8,3.7c-3.4,1.3-7.3,2.8-11.8,4.3c-2.2,0.8-4.5,1.6-7,2.4
			c-2.4,0.8-5,1.6-7.8,2.4c-2.4,0.7-5.2,1.5-8.3,2.3c-3.1,0.8-6.4,1.5-9.7,2.1h0.1c-0.7,0.1-1.4,0.3-2,0.3c-0.7,0.1-1.3,0.1-1.9,0.1
			c-0.2-0.3-0.4-0.6-0.4-0.7c-0.2-0.7-0.3-1.5-0.4-2.2s-0.1-1.5-0.1-2.2c0-0.5,0-1,0-1.7c0-0.6,0.1-1.2,0.1-1.7
			c0.3-2.4,0.6-4.7,1-6.9c0.4-2.2,0.8-4.1,1.2-5.6l0,0c0-0.1,0.1-0.1,0.1-0.2c0,0,0-0.1,0-0.2s0.1-0.3,0.2-0.5
			c0.5-0.4,0.9-0.8,1.3-1.2c0.4-0.4,0.9-0.9,1.4-1.4c0.8-0.8,1.6-1.7,2.5-2.6c0.8-0.9,1.7-1.9,2.6-3.1c1-1.2,2.3-2.9,3.7-5
			c1.5-2.1,3.1-4.8,5-8c1.8-3.1,3.8-6.9,6-11.2c2.2-4.4,4.3-9.4,6.4-15c0.7-1.8,1.3-3.5,1.8-5.3c0.5-1.7,1-3.4,1.5-4.9
			c0.5-1.7,0.9-3.4,1.3-5.1c0.4-1.8,0.7-3.5,0.9-5c0.1-0.4,0.1-0.9,0.2-1.3c0-0.5,0.1-1,0.1-1.6s0-1.2,0-1.8c0-0.6-0.2-1.3-0.4-2
			c-0.1-0.4-0.3-0.9-0.6-1.4c-0.3-0.5-0.8-0.9-1.5-1.3c-0.3-0.2-0.7-0.3-1.1-0.4s-0.8-0.1-1.2,0c-0.3,0-0.6,0.1-0.8,0.2
			c-0.3,0.1-0.6,0.3-0.8,0.4v0.1l-0.1,0.1c-0.5,0.3-0.9,0.8-1.4,1.2c-0.5,0.5-0.9,0.9-1.2,1.3l0.1-0.1l-0.4,0.4
			c-1.6,2-3.1,4.3-4.5,6.7c-1.4,2.5-2.9,5.2-4.5,8.2c-2.3,4.5-4.1,8.5-5.6,11.9s-2.7,6.4-3.8,9c-1,2.7-2,5.1-2.8,7.5
			c-0.8,2.3-1.6,4.7-2.4,7.2c-0.8,2.4-1.6,5-2.5,7.9s-1.8,6.2-2.9,10l-0.1,0.1c-0.2,0.2-0.4,0.3-0.5,0.3c-0.1,0.1-0.2,0.1-0.3,0.2
			l0,0l-0.1,0.1c-0.2,0.1-0.4,0.3-0.5,0.4l0.1-0.1c-1.1,0.9-2,1.9-2.6,3s-0.7,2.1-0.3,3c0.2,0.4,0.5,0.7,0.9,1
			c0.4,0.2,0.9,0.4,1.6,0.4c-0.2,0.8-0.3,1.5-0.4,2s-0.2,1-0.3,1.5c-0.1,0.5-0.2,1-0.3,1.6c-0.1,0.6-0.2,1.4-0.4,2.4
			c-0.1,1-0.3,2-0.4,3.1s-0.2,2.2-0.2,3.5c0,0.7,0,1.3,0.1,1.8c0,0.6,0.1,1.1,0.2,1.7c0.1,0.4,0.2,0.9,0.3,1.4
			c0.1,0.5,0.3,1,0.5,1.6c0.2,0.5,0.6,1,1,1.6c0.4,0.5,1.1,1.1,2,1.8c0.4,0.1,0.7,0.2,0.9,0.2c0.2,0,0.5,0,0.8,0c0.1,0,0.2,0,0.2,0
			c0.1,0,0.1,0,0.1,0h1.1c0,0,0.1,0,0.2,0h0.2c0.2,0,0.4,0,0.4,0c0.2,0,0.4-0.1,0.5-0.1c0.4-0.1,0.8-0.1,1.1-0.1
			c0.4,0,0.7-0.1,1.1-0.1c1.9-0.3,3.9-0.7,5.9-1.2c2.1-0.5,4.1-0.9,5.9-1.4c1.8-0.4,3.6-0.9,5.3-1.4c1.7-0.4,3.3-0.9,4.9-1.4
			c3.1-0.9,6.1-1.8,8.9-2.7c2.8-0.9,5.4-1.7,7.7-2.5c4.7-1.6,8.8-3.1,12.1-4.4s6.1-2.5,8.4-3.5s4.1-1.8,5.5-2.4s2.5-1.1,3.4-1.5
			c0.2-0.1,0.5-0.3,0.6-0.4c0.2-0.1,0.4-0.2,0.5-0.3c0.4-0.2,0.8-0.4,1.1-0.5c0.3-0.2,0.6-0.3,0.8-0.4c0.7-0.4,1.4-0.9,1.9-1.4
			s1-1.1,1.3-1.6s0.5-1.1,0.5-1.6s-0.1-1-0.3-1.4l-0.1,0.1c-0.5-0.8-1.3-1.2-2.6-1.2C529.8,390.6,529,390.7,528.2,390.9
			 M372.4,392.3L372.4,392.3c-0.7,0.3-1.6,0.8-2.7,1.5c-1.1,0.6-2.3,1.5-3.5,2.6c-0.7,0.7-1.4,1.5-2,2.5c-0.7,1-1.1,2.1-1.4,3.5
			c-0.1,0.5-0.2,1.2-0.2,2c0,1.1,0.1,2.2,0.4,3.3c0.3,1.1,0.7,2.2,1.3,3.4V411c0.4,1,1,1.8,1.6,2.5s1.2,1.3,1.9,1.9
			c0.6,0.5,1.2,1,2,1.5s1.5,0.9,2.1,1.3c1.4,0.7,3.2,1.5,5.4,2.3c2.2,0.8,4.7,1.4,7.4,1.8c1.3,0.2,2.5,0.4,3.7,0.4
			c1.2,0.1,2.3,0.1,3.3,0.1c0.6,0,1.2,0,1.8,0c0.6,0,1.2-0.1,1.6-0.1c1.3-0.1,2.6-0.3,3.7-0.4c1.1-0.2,2.2-0.3,3.2-0.5
			c1.1-0.3,2.4-0.6,3.8-0.9s3-0.8,4.8-1.3c1.8-0.6,3.8-1.2,6.2-2c2.4-0.8,5.2-1.9,8.4-3.4c3.5-1.5,6.4-3,9-4.4
			c2.5-1.4,4.7-2.6,6.6-3.8c1.2-0.8,2.3-1.5,3.4-2.1c1-0.6,1.9-1.2,2.7-1.7l0,0c0.1-0.1,0.3-0.2,0.4-0.3c0.1-0.1,0.2-0.2,0.4-0.3
			c0.2-0.2,0.5-0.3,0.7-0.4s0.4-0.2,0.6-0.4c0.3-0.2,0.6-0.4,0.9-0.6s0.5-0.3,0.8-0.5c0.2-0.1,0.3-0.3,0.5-0.4
			c0.1-0.1,0.3-0.2,0.4-0.3c0.6-0.4,1.1-0.7,1.4-0.9c0.3-0.2,0.6-0.4,0.8-0.5l0,0c0,0,0.1,0,0.1-0.1c0.5-0.4,0.9-0.8,1.1-1.4
			c0.3-0.5,0.4-1.1,0.4-1.7c0-0.7-0.2-1.4-0.7-2.1c-0.3-0.4-0.7-0.7-1.2-0.9c-0.5-0.2-1-0.3-1.5-0.3c-0.9,0-1.7,0.3-2.5,0.8
			c-0.1,0.1-0.2,0.1-0.3,0.2c-0.4,0.3-1,0.9-1.9,1.6s-2.1,1.7-3.7,2.9c-0.9,0.7-1.9,1.5-3.2,2.4c-1.3,0.9-2.8,1.9-4.6,3.1
			c-1.7,1.1-3.6,2.3-5.7,3.5s-4.5,2.5-7.1,3.7l0,0c-2.6,1.2-4.9,2.2-6.9,2.9c-2,0.7-3.8,1.3-5.3,1.8l0,0c-1.3,0.4-2.6,0.7-3.7,0.9
			c-1.1,0.2-2.2,0.4-3.3,0.6c-1,0.2-1.9,0.3-2.8,0.4c-0.8,0.1-1.8,0.2-2.8,0.2h-0.6c-1,0.1-2,0.2-3.2,0.2c-1.2,0.1-2.5,0.1-4.1,0.1
			c-5.3-0.1-9.9-0.8-13.8-2c-0.9-0.3-1.8-0.6-2.6-1c-0.8-0.4-1.6-0.8-2.4-1.3c-1.4-0.9-2.3-1.8-2.8-2.9c-0.4-0.8-0.7-1.6-0.9-2.3
			c-0.2-0.7-0.3-1.4-0.3-2.1c0-0.3,0-0.5,0.1-0.8c0.1-0.2,0.1-0.5,0.2-0.8c0.3-0.7,0.7-1.4,1.2-1.9s1-1,1.5-1.3l0,0
			c1-0.7,1.9-1.2,2.8-1.5c0.8-0.3,1.6-0.6,2.1-0.7c0.1,0,0.3,0,0.6-0.1c0.7-0.2,1.3-0.3,1.6-0.3c0.3,0,0.6-0.1,0.8-0.1
			c0.2,0,0.3,0,0.5,0c0.1,0,0.3-0.1,0.6-0.1l0,0c0.9-0.3,1.6-0.8,2.1-1.5c0.6-0.7,0.8-1.6,0.7-2.5c-0.2-1-0.7-1.7-1.6-2.3
			c-0.9-0.6-1.9-0.7-2.9-0.5h-0.1c-0.4,0.1-0.8,0.2-1.2,0.3c-0.3,0.1-0.7,0.2-1.1,0.4c-0.4,0.1-0.9,0.3-1.4,0.5
			C373.8,391.7,373.2,392,372.4,392.3 M377.8,390.3c-0.5,0.2-0.8,0.3-0.9,0.4s-0.3,0.1-0.5,0.2c-0.1,0.1-0.3,0.2-0.6,0.3
			c-0.3,0.2-0.7,0.3-1.1,0.5s-0.9,0.3-1.5,0.6c-0.2,0.1-0.4,0.2-0.7,0.3c-0.3,0.1-0.5,0.2-0.7,0.3c-0.7,0.3-1.8,0.6-3.2,1
			c-1.4,0.4-2.9,0.7-4.4,1.1c-0.9,0.2-1.9,0.3-3,0.5s-2.2,0.3-3.2,0.3c-0.5,0-1.1,0-1.8,0c-0.7,0-1.4-0.1-1.9-0.1
			c-0.2,0-0.5-0.1-0.8-0.1c-0.3-0.1-0.7-0.1-1.1-0.2c-1.2,0.5-2.2,0.9-3.1,1.3s-1.7,0.8-2.3,1.2c-0.6,0.4-1.1,0.6-1.5,0.9
			c-0.3,0.2-0.5,0.4-0.5,0.4v0.2c-1,0.7-2,1.3-2.9,1.9c-1,0.6-2,1.3-3,1.9l0.1-0.1c0,0-0.1,0-0.1,0.1c-0.1,0.1-0.2,0.2-0.3,0.2
			c-0.7,0.4-1.6,0.9-2.5,1.5c-0.9,0.5-1.9,1-2.8,1.5c-0.2,0.1-0.3,0.1-0.5,0.2c-1.1,0.5-2.2,1.1-3.5,1.7s-2.7,1.2-4.2,1.8
			c-1.2,0.5-2.2,0.8-3.3,1.2c-1,0.3-1.9,0.5-2.7,0.6c-0.6,0.1-1,0-1.4-0.2s-0.7-0.4-1-0.7c-0.4-0.4-0.7-0.9-1-1.4s-0.5-0.9-0.7-1.4
			l0.1,0.1c-0.2-0.6-0.4-1.2-0.6-1.8c-0.2-0.6-0.3-1.2-0.4-1.7c-0.1-0.7-0.2-1.4-0.3-2.1c-0.1-0.7-0.2-1.4-0.3-2.2
			c0-0.3-0.1-0.6-0.1-1c0-0.3,0-0.7,0-1c0-0.4,0.1-0.8,0.1-1.3c0-0.4-0.1-0.8-0.3-1.2c-0.2-0.4-0.5-0.7-0.9-1s-1.1-0.6-1.9-0.8
			l-1.5,1.5l-0.7-0.1c0,0.1,0.1,0.2,0.2,0.2s0.2,0,0.3,0c-0.1,0.1-0.2,0.3-0.4,0.5c-0.2,0.3-0.4,0.4-0.4,0.5l0.2-0.2
			c-1.6,1.6-3.5,3.5-5.7,5.7s-4.9,4.6-8,7.2c-0.7,0.6-1.5,1.2-2.3,1.8c-0.8,0.6-1.6,1.2-2.5,1.8c-0.8,0.6-1.7,1.1-2.4,1.7
			c-0.8,0.5-1.5,0.9-2.2,1.3l0,0c-0.2,0.1-0.4,0.2-0.6,0.3c-0.2,0.1-0.3,0.1-0.4,0.1c0,0,0-0.1-0.3-0.4c-0.3-0.4-0.6-0.9-0.9-1.4
			c-0.3-0.6-0.5-1.2-0.8-1.8l-0.1-0.1c-0.5-1.3-0.9-2.5-1.2-3.6c-0.3-1-0.6-2-0.7-2.7c-0.1-0.5-0.2-0.9-0.3-1.4
			c-0.1-0.4-0.1-0.8-0.2-1.2c-0.1-0.3-0.1-0.6-0.2-0.9c0-0.3-0.1-0.6-0.2-0.8c-0.1-0.1-0.1-0.1-0.1-0.2c0,0-0.1-0.1-0.1-0.2
			c-0.3-1.6-0.5-2.9-0.6-3.7c-0.1-0.8-0.2-1.4-0.3-1.8c-0.1-0.5-0.1-0.7-0.1-0.9c0-0.1,0-0.2-0.1-0.3c-0.2-1.1-0.8-2-1.6-2.8
			c-0.8-0.7-1.7-1-2.7-0.9c-0.5,0.1-0.9,0.3-1.2,0.6c-0.4,0.3-0.7,0.7-0.9,1.1c-0.2,0.4-0.4,0.9-0.5,1.5c-0.1,0.5-0.1,1.1,0,1.6
			c0,0.2,0,0.4,0.2,0.5l-0.1-0.1c0.1,0.5,0.4,1.5,0.8,3.1s0.9,3.5,1.5,5.9l0,0c0,0.1,0.1,0.3,0.1,0.4s0.1,0.3,0.1,0.4
			c0.2,0.7,0.4,1.5,0.6,2.2c0.2,0.8,0.5,1.6,0.8,2.4v-0.1c0.4,1.1,0.8,2.3,1.3,3.4c0.5,1.2,1,2.3,1.6,3.6c0.2,0.3,0.4,0.6,0.6,0.8
			c0.2,0.3,0.5,0.7,0.9,1.2c0.4,0.4,0.8,0.8,1.3,1.2c0.5,0.4,1.1,0.7,1.9,0.9c0.9,0.1,1.7,0.1,2.3-0.1c0.6-0.2,1.2-0.3,1.7-0.5
			c0.3-0.2,0.7-0.4,1.1-0.6s0.8-0.4,1.3-0.7c1.5-0.9,2.9-2,4.3-3.1s2.8-2.3,4.3-3.5c2.3-2,4.3-3.9,6-5.5s3.3-3.1,4.6-4.4
			c0.2,2,0.6,4,1.2,6.1c0.2,0.7,0.5,1.5,0.9,2.3c0.4,0.9,0.9,1.7,1.6,2.6c0.4,0.5,0.9,1,1.4,1.5c0.5,0.4,1.2,0.8,1.9,1.2
			c0.4,0.2,0.8,0.3,1.2,0.5c0.4,0.1,0.8,0.2,1.3,0.3c0.4,0.1,0.8,0.1,1.2,0.1c0.4,0,0.8,0,1.2-0.1c1.2-0.2,2.2-0.4,3.1-0.7
			c0.9-0.3,1.8-0.6,2.7-0.9c0.8-0.3,1.6-0.6,2.4-1s1.6-0.7,2.4-1.1c1.4-0.7,2.8-1.5,4.2-2.3c1.4-0.8,2.6-1.6,3.7-2.3
			c1.5-0.9,2.8-1.8,4.1-2.7c1.3-0.9,2.5-1.7,3.8-2.5l1.6-1.1l0,0c0.5-0.3,0.9-0.7,1.4-1c0.4-0.3,0.9-0.6,1.4-0.9l0.5-0.3
			c0.1-0.1,0.2-0.2,0.3-0.3c0.1-0.1,0.2-0.2,0.3-0.3l0.1-0.1c0.8,0.2,1.4,0.3,2,0.3c0.6,0.1,1.2,0.1,1.8,0.2c0.6,0,1.2,0.1,1.8,0.1
			h0.8h0.3c0.2,0,0.4,0,0.4,0c1.8-0.1,3.3-0.2,4.6-0.3c1.3-0.2,2.5-0.3,3.5-0.5H367c2.1-0.4,3.9-0.8,5.3-1.2c1.5-0.4,2.7-0.7,3.7-1
			c0.7-0.2,1.3-0.4,1.7-0.5c0.4-0.1,0.8-0.2,1.1-0.2c0.2,0,0.3-0.1,0.5-0.2c0.1-0.1,0.3-0.1,0.4-0.1c0.2,0,0.3-0.1,0.4-0.1
			c0.6-0.2,1.1-0.5,1.5-0.9s0.7-0.8,1-1.2c0.2-0.4,0.4-0.9,0.4-1.4c0.1-0.5,0-1-0.2-1.4c-0.4-0.9-1.1-1.5-2.1-1.8
			S378.8,389.9,377.8,390.3L377.8,390.3z"/>
	</g>
</g>
</svg>
