<svg width="35" height="43" viewBox="0 0 35 43" fill="none" xmlns="http://www.w3.org/2000/svg">
<path d="M8.77456 21.7276C8.51813 21.7276 8.34718 21.5565 8.26171 21.3855L0.0561424 0.769871C-0.0293322 0.598787 -0.029327 0.427712 0.141622 0.256628C0.227097 0.0855444 0.398046 0 0.568995 0H17.0656C17.2365 0 17.4075 0.0855444 17.4929 0.256628C17.5784 0.427712 17.5784 0.598787 17.5784 0.769871L9.37286 21.3855C9.20192 21.6421 9.03098 21.7276 8.77456 21.7276ZM1.33826 1.19758L8.77456 19.8457L16.2108 1.19758H1.33826Z" fill="white"/>
<path d="M17.004 42.345H0.592931C0.421982 42.345 0.251032 42.2595 0.165558 42.0884C0.0800833 41.9174 0.0800781 41.7463 0.0800781 41.5752L8.28564 20.9596C8.37112 20.703 8.713 20.6174 8.96943 20.703C9.0549 20.7885 9.14039 20.8741 9.22587 20.9596L17.4314 41.5752C17.5169 41.7463 17.5169 41.9174 17.346 42.0884C17.346 42.2595 17.175 42.345 17.004 42.345ZM1.3622 41.3185H16.3202L8.88395 22.6704L1.3622 41.3185Z" fill="white"/>
<path d="M17.0267 42.2872C16.7702 42.2872 16.5993 42.2017 16.5138 41.945L8.30825 21.3294C8.22277 21.2439 8.22277 21.0728 8.30825 20.9873L16.5138 0.371703C16.5993 0.115077 16.9412 0.0295458 17.1976 0.115088C17.2831 0.200629 17.3686 0.286161 17.454 0.371703L25.6596 20.9873C25.745 21.0728 25.745 21.2439 25.6596 21.3294L17.454 41.945C17.454 42.2017 17.2831 42.3727 17.0267 42.2872ZM9.33395 21.2439L17.0267 40.4908L24.7194 21.2439L17.0267 1.997L9.33395 21.2439Z" fill="white"/>
<path d="M25.2453 21.7276C24.9888 21.7276 24.8179 21.5565 24.7324 21.3855L16.5268 0.769871C16.4414 0.598787 16.4414 0.427712 16.6123 0.256628C16.6978 0.0855444 16.8687 0 17.0397 0H33.5363C33.7072 0 33.8782 0.0855444 33.9637 0.256628C34.0491 0.427712 34.0491 0.598787 34.0491 0.769871L25.8436 21.3855C25.6726 21.6421 25.5017 21.7276 25.2453 21.7276ZM17.809 1.19758L25.2453 19.8457L32.6815 1.19758H17.809Z" fill="white"/>
</svg>
