<svg version="1.1" id="Layer_1" width="151.355" height="49.354" xmlns="http://www.w3.org/2000/svg" xmlns:xlink="http://www.w3.org/1999/xlink" x="0px" y="0px"
	 viewBox="-373 201.6 151.4 49.4" style="enable-background:new -373 201.6 151.4 49.4;" xml:space="preserve">
<style type="text/css">
	.st0{fill:#FFFFFF;}
</style>
<g>
	<g id="Group_11_1_" transform="translate(0 0)">
		<g id="Group_7_1_">
			<path id="Path_5_1_" class="st0" d="M-362.8,226.9c-0.3,0-0.5-0.2-0.6-0.4l-9.6-24.1c-0.1-0.2-0.1-0.4,0.1-0.6
				c0.1-0.2,0.3-0.3,0.5-0.3h19.3c0.2,0,0.4,0.1,0.5,0.3c0.1,0.2,0.1,0.4,0.1,0.6l-9.6,24.1C-362.3,226.8-362.5,226.9-362.8,226.9z
				 M-371.5,202.9l8.7,21.8l8.7-21.8L-371.5,202.9L-371.5,202.9z"/>
		</g>
		<g id="Group_8_1_" transform="translate(0.028 24.102)">
			<path id="Path_6_1_" class="st0" d="M-353.2,226.9h-19.2c-0.2,0-0.4-0.1-0.5-0.3c-0.1-0.2-0.1-0.4-0.1-0.6l9.6-24.1
				c0.1-0.3,0.5-0.4,0.8-0.3c0.1,0.1,0.2,0.2,0.3,0.3l9.6,24.1c0.1,0.2,0.1,0.4-0.1,0.6C-352.8,226.8-353,226.9-353.2,226.9z
				 M-371.5,225.7h17.5l-8.7-21.8L-371.5,225.7z"/>
		</g>
		<g id="Group_9_1_" transform="translate(9.656 0.035)">
			<path id="Path_7_1_" class="st0" d="M-362.8,250.9c-0.3,0-0.5-0.1-0.6-0.4l-9.6-24.1c-0.1-0.1-0.1-0.3,0-0.4l9.6-24.1
				c0.1-0.3,0.5-0.4,0.8-0.3c0.1,0.1,0.2,0.2,0.3,0.3l9.6,24.1c0.1,0.1,0.1,0.3,0,0.4l-9.6,24.1C-362.3,250.8-362.5,251-362.8,250.9
				z M-371.8,226.3l9,22.5l9-22.5l-9-22.5L-371.8,226.3z"/>
		</g>
		<g id="Group_10_1_" transform="translate(19.27)">
			<path id="Path_8_1_" class="st0" d="M-362.8,226.9c-0.3,0-0.5-0.2-0.6-0.4l-9.6-24.1c-0.1-0.2-0.1-0.4,0.1-0.6
				c0.1-0.2,0.3-0.3,0.5-0.3h19.3c0.2,0,0.4,0.1,0.5,0.3c0.1,0.2,0.1,0.4,0.1,0.6l-9.6,24.1C-362.3,226.8-362.5,226.9-362.8,226.9z
				 M-371.5,202.9l8.7,21.8l8.7-21.8H-371.5z"/>
		</g>
	</g>
	<g id="XMLID_19_">
		<path id="XMLID_24_" class="st0" d="M-322.7,237.7c-0.5,0-0.9-0.1-1.3-0.3c-0.4-0.2-0.6-0.5-0.6-0.9v-7.3c0-0.1,0-0.3-0.1-0.4
			l-6-10.4c0-0.1-0.1-0.1-0.1-0.2c0-0.1,0-0.1,0-0.2c0-0.3,0.1-0.6,0.4-0.8c0.3-0.2,0.6-0.4,1-0.6c0.4-0.1,0.8-0.2,1.1-0.2
			c0.3,0,0.5,0.1,0.7,0.2c0.2,0.1,0.3,0.3,0.4,0.6l4.4,8.4l4.4-8.4c0.2-0.3,0.3-0.4,0.5-0.6c0.2-0.1,0.4-0.2,0.7-0.2
			c0.3,0,0.7,0.1,1.1,0.2c0.4,0.1,0.7,0.3,1,0.6c0.3,0.2,0.4,0.5,0.4,0.8c0,0,0,0.1,0,0.2c0,0.1,0,0.1-0.1,0.2l-6,10.4
			c-0.1,0.1-0.1,0.2-0.1,0.4v7.3c0,0.4-0.2,0.7-0.6,0.9C-321.8,237.6-322.2,237.7-322.7,237.7z"/>
		<path id="XMLID_29_" class="st0" d="M-286.6,238c-1.3,0-2.4-0.2-3.4-0.6c-1-0.4-1.8-0.8-2.4-1.4c-0.6-0.6-0.9-1.1-0.9-1.7
			c0-0.3,0.1-0.6,0.2-0.9c0.1-0.3,0.3-0.6,0.6-0.8c0.3-0.2,0.5-0.3,0.8-0.3c0.3,0,0.6,0.1,0.9,0.3c0.3,0.2,0.6,0.5,0.9,0.8
			c0.3,0.3,0.8,0.6,1.3,0.8c0.5,0.2,1.1,0.3,1.9,0.3c0.6,0,1.1-0.1,1.6-0.3c0.5-0.2,0.9-0.5,1.2-0.8c0.3-0.4,0.5-0.8,0.5-1.4
			c0-0.6-0.2-1.1-0.5-1.6c-0.3-0.4-0.8-0.8-1.3-1.1c-0.6-0.3-1.2-0.6-1.8-0.9c-0.7-0.3-1.3-0.6-2-0.9c-0.7-0.3-1.3-0.7-1.8-1.2
			c-0.6-0.5-1-1-1.3-1.7c-0.3-0.7-0.5-1.5-0.5-2.5c0-1.1,0.2-2,0.6-2.7c0.4-0.7,1-1.3,1.7-1.8c0.7-0.5,1.4-0.8,2.3-1
			c0.8-0.2,1.7-0.3,2.5-0.3c0.4,0,1,0,1.6,0.1c0.6,0.1,1.2,0.2,1.8,0.4c0.6,0.2,1.1,0.4,1.5,0.7c0.4,0.3,0.6,0.7,0.6,1.1
			c0,0.2-0.1,0.5-0.2,0.8c-0.1,0.3-0.3,0.6-0.5,0.8c-0.2,0.2-0.5,0.4-0.9,0.4c-0.3,0-0.6-0.1-0.9-0.3c-0.3-0.2-0.7-0.4-1.2-0.6
			c-0.5-0.2-1.1-0.3-1.9-0.3c-0.7,0-1.3,0.1-1.8,0.3c-0.5,0.2-0.9,0.4-1.1,0.8c-0.3,0.3-0.4,0.7-0.4,1.2c0,0.5,0.2,0.9,0.5,1.3
			c0.3,0.3,0.8,0.7,1.3,0.9c0.6,0.3,1.2,0.5,1.8,0.8c0.7,0.3,1.3,0.6,2,0.9c0.7,0.4,1.3,0.8,1.8,1.3c0.6,0.5,1,1.1,1.3,1.9
			c0.3,0.7,0.5,1.7,0.5,2.7c0,1.4-0.3,2.5-0.9,3.5c-0.6,0.9-1.4,1.6-2.5,2.1C-284.1,237.7-285.3,238-286.6,238z"/>
		<path id="XMLID_31_" class="st0" d="M-267.5,237.9c-1.3,0-2.5-0.2-3.5-0.7c-1-0.4-1.9-1.1-2.5-2.1c-0.6-1-0.9-2.3-0.9-3.9v-13.6
			c0-0.4,0.2-0.7,0.6-0.9c0.4-0.2,0.8-0.3,1.3-0.3c0.5,0,0.9,0.1,1.3,0.3c0.4,0.2,0.6,0.5,0.6,0.9v13.6c0,1.1,0.3,2,0.8,2.5
			c0.6,0.6,1.3,0.8,2.4,0.8c1,0,1.8-0.3,2.3-0.8c0.6-0.6,0.9-1.4,0.9-2.5v-13.6c0-0.4,0.2-0.7,0.6-0.9c0.4-0.2,0.8-0.3,1.3-0.3
			c0.5,0,0.9,0.1,1.3,0.3c0.4,0.2,0.6,0.5,0.6,0.9v13.6c0,1.6-0.3,2.9-0.9,3.9c-0.6,1-1.5,1.7-2.5,2.1
			C-265,237.7-266.2,237.9-267.5,237.9z"/>
		<path id="XMLID_33_" class="st0" d="M-252.5,237.7c-0.5,0-0.9-0.1-1.3-0.3c-0.4-0.2-0.6-0.5-0.6-0.9v-18.9c0-0.4,0.2-0.7,0.6-0.9
			c0.4-0.2,0.8-0.3,1.3-0.3c0.5,0,0.9,0.1,1.3,0.3c0.4,0.2,0.6,0.5,0.6,0.9v7.9l6.3-8.5c0.3-0.4,0.6-0.6,1-0.6c0.3,0,0.7,0.1,1,0.3
			c0.3,0.2,0.6,0.4,0.9,0.7c0.2,0.3,0.3,0.6,0.3,0.9c0,0.1,0,0.2-0.1,0.3c0,0.1-0.1,0.3-0.2,0.4l-5.2,6.5l6.3,9.6
			c0.1,0.2,0.2,0.4,0.2,0.7c0,0.3-0.1,0.6-0.3,0.9c-0.2,0.3-0.5,0.5-0.9,0.7s-0.7,0.3-1.1,0.3c-0.3,0-0.5-0.1-0.7-0.2
			c-0.2-0.1-0.4-0.3-0.6-0.6l-5.5-8.3l-1.6,2v5.7c0,0.4-0.2,0.7-0.6,0.9C-251.6,237.6-252,237.7-252.5,237.7z"/>
		<path id="XMLID_35_" class="st0" d="M-233.9,237.7c-0.4,0-0.8-0.1-1.1-0.3c-0.3-0.2-0.5-0.5-0.5-0.9v-18.9c0-0.4,0.2-0.7,0.5-0.9
			c0.3-0.2,0.7-0.3,1.1-0.3h10.3c0.4,0,0.7,0.2,0.9,0.5c0.2,0.3,0.3,0.7,0.3,1.1c0,0.5-0.1,0.9-0.3,1.2c-0.2,0.3-0.5,0.5-0.9,0.5
			h-8.2v5.8h4.4c0.4,0,0.7,0.2,0.9,0.5c0.2,0.3,0.3,0.7,0.3,1.1c0,0.3-0.1,0.7-0.3,1c-0.2,0.3-0.5,0.5-0.9,0.5h-4.4v5.8h8.2
			c0.4,0,0.7,0.2,0.9,0.5c0.2,0.3,0.3,0.7,0.3,1.2c0,0.4-0.1,0.8-0.3,1.1c-0.2,0.3-0.5,0.5-0.9,0.5H-233.9z"/>
		<path id="XMLID_37_" class="st0" d="M-297.1,235.9l-5.6-18.3c-0.1-0.4-0.4-0.7-0.9-1c-0.5-0.2-1-0.3-1.5-0.3
			c-0.5,0-1.1,0.1-1.5,0.3c-0.5,0.2-0.8,0.5-0.9,1l-5.6,18.3c0,0.1,0,0.2,0,0.3c0,0.3,0.1,0.6,0.4,0.8c0.3,0.2,0.6,0.4,0.9,0.6
			c0.4,0.1,0.7,0.2,1.1,0.2c0.3,0,0.6-0.1,0.8-0.2c0.2-0.1,0.4-0.3,0.5-0.6l4.4-15.7l4.4,15.7c0.1,0.3,0.2,0.5,0.5,0.6
			c0.2,0.1,0.5,0.2,0.8,0.2c0.3,0,0.7-0.1,1.1-0.2c0.4-0.1,0.7-0.3,0.9-0.6c0.3-0.2,0.4-0.5,0.4-0.8C-297,236.1-297,236-297.1,235.9
			z"/>
	</g>
</g>
</svg>
